%TF.GenerationSoftware,KiCad,Pcbnew,(6.0.9)*%
%TF.CreationDate,2023-06-09T23:35:08+09:00*%
%TF.ProjectId,PCB_Main,5043425f-4d61-4696-9e2e-6b696361645f,rev?*%
%TF.SameCoordinates,Original*%
%TF.FileFunction,Legend,Top*%
%TF.FilePolarity,Positive*%
%FSLAX46Y46*%
G04 Gerber Fmt 4.6, Leading zero omitted, Abs format (unit mm)*
G04 Created by KiCad (PCBNEW (6.0.9)) date 2023-06-09 23:35:08*
%MOMM*%
%LPD*%
G01*
G04 APERTURE LIST*
%ADD10C,0.300000*%
%ADD11C,0.150000*%
%ADD12C,0.120000*%
G04 APERTURE END LIST*
D10*
X175501902Y-73855452D02*
X175501902Y-73754436D01*
X175552410Y-73602913D01*
X175804948Y-73350375D01*
X175956471Y-73299868D01*
X176057486Y-73299868D01*
X176209009Y-73350375D01*
X176310024Y-73451391D01*
X176411040Y-73653421D01*
X176411040Y-74865604D01*
X177067639Y-74209005D01*
X176663578Y-72491746D02*
X176764593Y-72390730D01*
X176916116Y-72340223D01*
X177017131Y-72340223D01*
X177168654Y-72390730D01*
X177421192Y-72542253D01*
X177673730Y-72794791D01*
X177825253Y-73047330D01*
X177875761Y-73198852D01*
X177875761Y-73299868D01*
X177825253Y-73451391D01*
X177724238Y-73552406D01*
X177572715Y-73602913D01*
X177471700Y-73602913D01*
X177320177Y-73552406D01*
X177067639Y-73400883D01*
X176815101Y-73148345D01*
X176663578Y-72895807D01*
X176613070Y-72744284D01*
X176613070Y-72643269D01*
X176663578Y-72491746D01*
X177522208Y-71835147D02*
X177522208Y-71734131D01*
X177572715Y-71582608D01*
X177825253Y-71330070D01*
X177976776Y-71279563D01*
X178077791Y-71279563D01*
X178229314Y-71330070D01*
X178330330Y-71431086D01*
X178431345Y-71633116D01*
X178431345Y-72845299D01*
X179087944Y-72188700D01*
X178380837Y-70774486D02*
X179037436Y-70117887D01*
X179087944Y-70875502D01*
X179239467Y-70723979D01*
X179390990Y-70673471D01*
X179492005Y-70673471D01*
X179643528Y-70723979D01*
X179896066Y-70976517D01*
X179946574Y-71128040D01*
X179946574Y-71229055D01*
X179896066Y-71380578D01*
X179593020Y-71683624D01*
X179441497Y-71734131D01*
X179340482Y-71734131D01*
X181598142Y-70486071D02*
X182526714Y-70486071D01*
X182026714Y-71057500D01*
X182241000Y-71057500D01*
X182383857Y-71128928D01*
X182455285Y-71200357D01*
X182526714Y-71343214D01*
X182526714Y-71700357D01*
X182455285Y-71843214D01*
X182383857Y-71914642D01*
X182241000Y-71986071D01*
X181812428Y-71986071D01*
X181669571Y-71914642D01*
X181598142Y-71843214D01*
X183169571Y-71843214D02*
X183241000Y-71914642D01*
X183169571Y-71986071D01*
X183098142Y-71914642D01*
X183169571Y-71843214D01*
X183169571Y-71986071D01*
X183741000Y-70486071D02*
X184669571Y-70486071D01*
X184169571Y-71057500D01*
X184383857Y-71057500D01*
X184526714Y-71128928D01*
X184598142Y-71200357D01*
X184669571Y-71343214D01*
X184669571Y-71700357D01*
X184598142Y-71843214D01*
X184526714Y-71914642D01*
X184383857Y-71986071D01*
X183955285Y-71986071D01*
X183812428Y-71914642D01*
X183741000Y-71843214D01*
X185098142Y-70486071D02*
X185598142Y-71986071D01*
X186098142Y-70486071D01*
X181526714Y-74401071D02*
X180669571Y-74401071D01*
X181098142Y-74401071D02*
X181098142Y-72901071D01*
X180955285Y-73115357D01*
X180812428Y-73258214D01*
X180669571Y-73329642D01*
X182169571Y-74401071D02*
X182169571Y-72901071D01*
X182741000Y-72901071D01*
X182883857Y-72972500D01*
X182955285Y-73043928D01*
X183026714Y-73186785D01*
X183026714Y-73401071D01*
X182955285Y-73543928D01*
X182883857Y-73615357D01*
X182741000Y-73686785D01*
X182169571Y-73686785D01*
X183669571Y-74401071D02*
X183669571Y-72901071D01*
X184241000Y-72901071D01*
X184383857Y-72972500D01*
X184455285Y-73043928D01*
X184526714Y-73186785D01*
X184526714Y-73401071D01*
X184455285Y-73543928D01*
X184383857Y-73615357D01*
X184241000Y-73686785D01*
X183669571Y-73686785D01*
X185098142Y-74329642D02*
X185312428Y-74401071D01*
X185669571Y-74401071D01*
X185812428Y-74329642D01*
X185883857Y-74258214D01*
X185955285Y-74115357D01*
X185955285Y-73972500D01*
X185883857Y-73829642D01*
X185812428Y-73758214D01*
X185669571Y-73686785D01*
X185383857Y-73615357D01*
X185241000Y-73543928D01*
X185169571Y-73472500D01*
X185098142Y-73329642D01*
X185098142Y-73186785D01*
X185169571Y-73043928D01*
X185241000Y-72972500D01*
X185383857Y-72901071D01*
X185741000Y-72901071D01*
X185955285Y-72972500D01*
X183598142Y-76744642D02*
X183812428Y-76816071D01*
X184169571Y-76816071D01*
X184312428Y-76744642D01*
X184383857Y-76673214D01*
X184455285Y-76530357D01*
X184455285Y-76387500D01*
X184383857Y-76244642D01*
X184312428Y-76173214D01*
X184169571Y-76101785D01*
X183883857Y-76030357D01*
X183741000Y-75958928D01*
X183669571Y-75887500D01*
X183598142Y-75744642D01*
X183598142Y-75601785D01*
X183669571Y-75458928D01*
X183741000Y-75387500D01*
X183883857Y-75316071D01*
X184241000Y-75316071D01*
X184455285Y-75387500D01*
X185098142Y-76816071D02*
X185098142Y-75316071D01*
X185455285Y-75316071D01*
X185669571Y-75387500D01*
X185812428Y-75530357D01*
X185883857Y-75673214D01*
X185955285Y-75958928D01*
X185955285Y-76173214D01*
X185883857Y-76458928D01*
X185812428Y-76601785D01*
X185669571Y-76744642D01*
X185455285Y-76816071D01*
X185098142Y-76816071D01*
X182812428Y-77802500D02*
X182669571Y-77731071D01*
X182455285Y-77731071D01*
X182241000Y-77802500D01*
X182098142Y-77945357D01*
X182026714Y-78088214D01*
X181955285Y-78373928D01*
X181955285Y-78588214D01*
X182026714Y-78873928D01*
X182098142Y-79016785D01*
X182241000Y-79159642D01*
X182455285Y-79231071D01*
X182598142Y-79231071D01*
X182812428Y-79159642D01*
X182883857Y-79088214D01*
X182883857Y-78588214D01*
X182598142Y-78588214D01*
X183526714Y-79231071D02*
X183526714Y-77731071D01*
X184383857Y-79231071D01*
X184383857Y-77731071D01*
X185098142Y-79231071D02*
X185098142Y-77731071D01*
X185455285Y-77731071D01*
X185669571Y-77802500D01*
X185812428Y-77945357D01*
X185883857Y-78088214D01*
X185955285Y-78373928D01*
X185955285Y-78588214D01*
X185883857Y-78873928D01*
X185812428Y-79016785D01*
X185669571Y-79159642D01*
X185455285Y-79231071D01*
X185098142Y-79231071D01*
X183598142Y-85527500D02*
X184312428Y-85527500D01*
X183455285Y-85956071D02*
X183955285Y-84456071D01*
X184455285Y-85956071D01*
X184955285Y-85956071D02*
X184955285Y-84956071D01*
X184955285Y-84456071D02*
X184883857Y-84527500D01*
X184955285Y-84598928D01*
X185026714Y-84527500D01*
X184955285Y-84456071D01*
X184955285Y-84598928D01*
X185669571Y-85956071D02*
X185669571Y-84956071D01*
X185669571Y-85241785D02*
X185741000Y-85098928D01*
X185812428Y-85027500D01*
X185955285Y-84956071D01*
X186098142Y-84956071D01*
X180098142Y-86871071D02*
X180098142Y-88085357D01*
X180169571Y-88228214D01*
X180241000Y-88299642D01*
X180383857Y-88371071D01*
X180669571Y-88371071D01*
X180812428Y-88299642D01*
X180883857Y-88228214D01*
X180955285Y-88085357D01*
X180955285Y-86871071D01*
X181669571Y-87371071D02*
X181669571Y-88371071D01*
X181669571Y-87513928D02*
X181741000Y-87442500D01*
X181883857Y-87371071D01*
X182098142Y-87371071D01*
X182241000Y-87442500D01*
X182312428Y-87585357D01*
X182312428Y-88371071D01*
X183669571Y-88371071D02*
X183669571Y-86871071D01*
X183669571Y-88299642D02*
X183526714Y-88371071D01*
X183241000Y-88371071D01*
X183098142Y-88299642D01*
X183026714Y-88228214D01*
X182955285Y-88085357D01*
X182955285Y-87656785D01*
X183026714Y-87513928D01*
X183098142Y-87442500D01*
X183241000Y-87371071D01*
X183526714Y-87371071D01*
X183669571Y-87442500D01*
X184955285Y-88299642D02*
X184812428Y-88371071D01*
X184526714Y-88371071D01*
X184383857Y-88299642D01*
X184312428Y-88156785D01*
X184312428Y-87585357D01*
X184383857Y-87442500D01*
X184526714Y-87371071D01*
X184812428Y-87371071D01*
X184955285Y-87442500D01*
X185026714Y-87585357D01*
X185026714Y-87728214D01*
X184312428Y-87871071D01*
X185669571Y-88371071D02*
X185669571Y-87371071D01*
X185669571Y-87656785D02*
X185741000Y-87513928D01*
X185812428Y-87442500D01*
X185955285Y-87371071D01*
X186098142Y-87371071D01*
X182955285Y-90786071D02*
X182955285Y-89286071D01*
X184526714Y-90643214D02*
X184455285Y-90714642D01*
X184241000Y-90786071D01*
X184098142Y-90786071D01*
X183883857Y-90714642D01*
X183741000Y-90571785D01*
X183669571Y-90428928D01*
X183598142Y-90143214D01*
X183598142Y-89928928D01*
X183669571Y-89643214D01*
X183741000Y-89500357D01*
X183883857Y-89357500D01*
X184098142Y-89286071D01*
X184241000Y-89286071D01*
X184455285Y-89357500D01*
X184526714Y-89428928D01*
X185098142Y-90714642D02*
X185312428Y-90786071D01*
X185669571Y-90786071D01*
X185812428Y-90714642D01*
X185883857Y-90643214D01*
X185955285Y-90500357D01*
X185955285Y-90357500D01*
X185883857Y-90214642D01*
X185812428Y-90143214D01*
X185669571Y-90071785D01*
X185383857Y-90000357D01*
X185241000Y-89928928D01*
X185169571Y-89857500D01*
X185098142Y-89714642D01*
X185098142Y-89571785D01*
X185169571Y-89428928D01*
X185241000Y-89357500D01*
X185383857Y-89286071D01*
X185741000Y-89286071D01*
X185955285Y-89357500D01*
X182812428Y-91772500D02*
X182669571Y-91701071D01*
X182455285Y-91701071D01*
X182241000Y-91772500D01*
X182098142Y-91915357D01*
X182026714Y-92058214D01*
X181955285Y-92343928D01*
X181955285Y-92558214D01*
X182026714Y-92843928D01*
X182098142Y-92986785D01*
X182241000Y-93129642D01*
X182455285Y-93201071D01*
X182598142Y-93201071D01*
X182812428Y-93129642D01*
X182883857Y-93058214D01*
X182883857Y-92558214D01*
X182598142Y-92558214D01*
X183526714Y-93201071D02*
X183526714Y-91701071D01*
X184383857Y-93201071D01*
X184383857Y-91701071D01*
X185098142Y-93201071D02*
X185098142Y-91701071D01*
X185455285Y-91701071D01*
X185669571Y-91772500D01*
X185812428Y-91915357D01*
X185883857Y-92058214D01*
X185955285Y-92343928D01*
X185955285Y-92558214D01*
X185883857Y-92843928D01*
X185812428Y-92986785D01*
X185669571Y-93129642D01*
X185455285Y-93201071D01*
X185098142Y-93201071D01*
D11*
%TO.C,U1*%
X94218904Y-59397761D02*
X94361761Y-59445380D01*
X94599857Y-59445380D01*
X94695095Y-59397761D01*
X94742714Y-59350142D01*
X94790333Y-59254904D01*
X94790333Y-59159666D01*
X94742714Y-59064428D01*
X94695095Y-59016809D01*
X94599857Y-58969190D01*
X94409380Y-58921571D01*
X94314142Y-58873952D01*
X94266523Y-58826333D01*
X94218904Y-58731095D01*
X94218904Y-58635857D01*
X94266523Y-58540619D01*
X94314142Y-58493000D01*
X94409380Y-58445380D01*
X94647476Y-58445380D01*
X94790333Y-58493000D01*
X95218904Y-58921571D02*
X95552238Y-58921571D01*
X95695095Y-59445380D02*
X95218904Y-59445380D01*
X95218904Y-58445380D01*
X95695095Y-58445380D01*
X96123666Y-58921571D02*
X96457000Y-58921571D01*
X96599857Y-59445380D02*
X96123666Y-59445380D01*
X96123666Y-58445380D01*
X96599857Y-58445380D01*
X97028428Y-58921571D02*
X97361761Y-58921571D01*
X97504619Y-59445380D02*
X97028428Y-59445380D01*
X97028428Y-58445380D01*
X97504619Y-58445380D01*
X97933190Y-59445380D02*
X97933190Y-58445380D01*
X98171285Y-58445380D01*
X98314142Y-58493000D01*
X98409380Y-58588238D01*
X98457000Y-58683476D01*
X98504619Y-58873952D01*
X98504619Y-59016809D01*
X98457000Y-59207285D01*
X98409380Y-59302523D01*
X98314142Y-59397761D01*
X98171285Y-59445380D01*
X97933190Y-59445380D01*
X98933190Y-58445380D02*
X98933190Y-59254904D01*
X98980809Y-59350142D01*
X99028428Y-59397761D01*
X99123666Y-59445380D01*
X99314142Y-59445380D01*
X99409380Y-59397761D01*
X99457000Y-59350142D01*
X99504619Y-59254904D01*
X99504619Y-58445380D01*
X99980809Y-59445380D02*
X99980809Y-58445380D01*
X100457000Y-59445380D02*
X100457000Y-58445380D01*
X101028428Y-59445380D01*
X101028428Y-58445380D01*
X101695095Y-58445380D02*
X101885571Y-58445380D01*
X101980809Y-58493000D01*
X102076047Y-58588238D01*
X102123666Y-58778714D01*
X102123666Y-59112047D01*
X102076047Y-59302523D01*
X101980809Y-59397761D01*
X101885571Y-59445380D01*
X101695095Y-59445380D01*
X101599857Y-59397761D01*
X101504619Y-59302523D01*
X101457000Y-59112047D01*
X101457000Y-58778714D01*
X101504619Y-58588238D01*
X101599857Y-58493000D01*
X101695095Y-58445380D01*
X102552238Y-59064428D02*
X103314142Y-59064428D01*
X103695095Y-58445380D02*
X104361761Y-59445380D01*
X104361761Y-58445380D02*
X103695095Y-59445380D01*
X104742714Y-59445380D02*
X104742714Y-58445380D01*
X105171285Y-59159666D02*
X105647476Y-59159666D01*
X105076047Y-59445380D02*
X105409380Y-58445380D01*
X105742714Y-59445380D01*
X106266523Y-58445380D02*
X106457000Y-58445380D01*
X106552238Y-58493000D01*
X106647476Y-58588238D01*
X106695095Y-58778714D01*
X106695095Y-59112047D01*
X106647476Y-59302523D01*
X106552238Y-59397761D01*
X106457000Y-59445380D01*
X106266523Y-59445380D01*
X106171285Y-59397761D01*
X106076047Y-59302523D01*
X106028428Y-59112047D01*
X106028428Y-58778714D01*
X106076047Y-58588238D01*
X106171285Y-58493000D01*
X106266523Y-58445380D01*
%TO.C,GPS-UART1*%
X185225000Y-64880476D02*
X185177380Y-64975714D01*
X185177380Y-65118571D01*
X185225000Y-65261428D01*
X185320238Y-65356666D01*
X185415476Y-65404285D01*
X185605952Y-65451904D01*
X185748809Y-65451904D01*
X185939285Y-65404285D01*
X186034523Y-65356666D01*
X186129761Y-65261428D01*
X186177380Y-65118571D01*
X186177380Y-65023333D01*
X186129761Y-64880476D01*
X186082142Y-64832857D01*
X185748809Y-64832857D01*
X185748809Y-65023333D01*
X186177380Y-64404285D02*
X185177380Y-64404285D01*
X185177380Y-64023333D01*
X185225000Y-63928095D01*
X185272619Y-63880476D01*
X185367857Y-63832857D01*
X185510714Y-63832857D01*
X185605952Y-63880476D01*
X185653571Y-63928095D01*
X185701190Y-64023333D01*
X185701190Y-64404285D01*
X186129761Y-63451904D02*
X186177380Y-63309047D01*
X186177380Y-63070952D01*
X186129761Y-62975714D01*
X186082142Y-62928095D01*
X185986904Y-62880476D01*
X185891666Y-62880476D01*
X185796428Y-62928095D01*
X185748809Y-62975714D01*
X185701190Y-63070952D01*
X185653571Y-63261428D01*
X185605952Y-63356666D01*
X185558333Y-63404285D01*
X185463095Y-63451904D01*
X185367857Y-63451904D01*
X185272619Y-63404285D01*
X185225000Y-63356666D01*
X185177380Y-63261428D01*
X185177380Y-63023333D01*
X185225000Y-62880476D01*
X185796428Y-62451904D02*
X185796428Y-61690000D01*
X185177380Y-61356666D02*
X185177380Y-60785238D01*
X186177380Y-61070952D02*
X185177380Y-61070952D01*
X185177380Y-60547142D02*
X186177380Y-60309047D01*
X185463095Y-60118571D01*
X186177380Y-59928095D01*
X185177380Y-59690000D01*
X185653571Y-59309047D02*
X185653571Y-58975714D01*
X186177380Y-58832857D02*
X186177380Y-59309047D01*
X185177380Y-59309047D01*
X185177380Y-58832857D01*
X185796428Y-58404285D02*
X185796428Y-57642380D01*
X185177380Y-57166190D02*
X185986904Y-57166190D01*
X186082142Y-57118571D01*
X186129761Y-57070952D01*
X186177380Y-56975714D01*
X186177380Y-56785238D01*
X186129761Y-56690000D01*
X186082142Y-56642380D01*
X185986904Y-56594761D01*
X185177380Y-56594761D01*
X185891666Y-56166190D02*
X185891666Y-55690000D01*
X186177380Y-56261428D02*
X185177380Y-55928095D01*
X186177380Y-55594761D01*
X186177380Y-54690000D02*
X185701190Y-55023333D01*
X186177380Y-55261428D02*
X185177380Y-55261428D01*
X185177380Y-54880476D01*
X185225000Y-54785238D01*
X185272619Y-54737619D01*
X185367857Y-54690000D01*
X185510714Y-54690000D01*
X185605952Y-54737619D01*
X185653571Y-54785238D01*
X185701190Y-54880476D01*
X185701190Y-55261428D01*
X185177380Y-54404285D02*
X185177380Y-53832857D01*
X186177380Y-54118571D02*
X185177380Y-54118571D01*
%TO.C,D4*%
X115013824Y-74556904D02*
X114013824Y-74556904D01*
X115013824Y-73985476D02*
X114442396Y-74414047D01*
X114013824Y-73985476D02*
X114585253Y-74556904D01*
%TO.C,ATP3012*%
X133406666Y-59833809D02*
X133406666Y-59357619D01*
X133692380Y-59929047D02*
X132692380Y-59595714D01*
X133692380Y-59262380D01*
X132692380Y-59071904D02*
X132692380Y-58500476D01*
X133692380Y-58786190D02*
X132692380Y-58786190D01*
X133692380Y-58167142D02*
X132692380Y-58167142D01*
X132692380Y-57786190D01*
X132740000Y-57690952D01*
X132787619Y-57643333D01*
X132882857Y-57595714D01*
X133025714Y-57595714D01*
X133120952Y-57643333D01*
X133168571Y-57690952D01*
X133216190Y-57786190D01*
X133216190Y-58167142D01*
X132692380Y-57262380D02*
X132692380Y-56643333D01*
X133073333Y-56976666D01*
X133073333Y-56833809D01*
X133120952Y-56738571D01*
X133168571Y-56690952D01*
X133263809Y-56643333D01*
X133501904Y-56643333D01*
X133597142Y-56690952D01*
X133644761Y-56738571D01*
X133692380Y-56833809D01*
X133692380Y-57119523D01*
X133644761Y-57214761D01*
X133597142Y-57262380D01*
X132692380Y-56024285D02*
X132692380Y-55929047D01*
X132740000Y-55833809D01*
X132787619Y-55786190D01*
X132882857Y-55738571D01*
X133073333Y-55690952D01*
X133311428Y-55690952D01*
X133501904Y-55738571D01*
X133597142Y-55786190D01*
X133644761Y-55833809D01*
X133692380Y-55929047D01*
X133692380Y-56024285D01*
X133644761Y-56119523D01*
X133597142Y-56167142D01*
X133501904Y-56214761D01*
X133311428Y-56262380D01*
X133073333Y-56262380D01*
X132882857Y-56214761D01*
X132787619Y-56167142D01*
X132740000Y-56119523D01*
X132692380Y-56024285D01*
X133692380Y-54738571D02*
X133692380Y-55310000D01*
X133692380Y-55024285D02*
X132692380Y-55024285D01*
X132835238Y-55119523D01*
X132930476Y-55214761D01*
X132978095Y-55310000D01*
X132787619Y-54357619D02*
X132740000Y-54310000D01*
X132692380Y-54214761D01*
X132692380Y-53976666D01*
X132740000Y-53881428D01*
X132787619Y-53833809D01*
X132882857Y-53786190D01*
X132978095Y-53786190D01*
X133120952Y-53833809D01*
X133692380Y-54405238D01*
X133692380Y-53786190D01*
%TO.C,M78AR05-2*%
X120860824Y-83636904D02*
X119860824Y-83636904D01*
X120575110Y-83303571D01*
X119860824Y-82970238D01*
X120860824Y-82970238D01*
X119860824Y-82589285D02*
X119860824Y-81922619D01*
X120860824Y-82351190D01*
X120289396Y-81398809D02*
X120241777Y-81494047D01*
X120194158Y-81541666D01*
X120098920Y-81589285D01*
X120051301Y-81589285D01*
X119956063Y-81541666D01*
X119908444Y-81494047D01*
X119860824Y-81398809D01*
X119860824Y-81208333D01*
X119908444Y-81113095D01*
X119956063Y-81065476D01*
X120051301Y-81017857D01*
X120098920Y-81017857D01*
X120194158Y-81065476D01*
X120241777Y-81113095D01*
X120289396Y-81208333D01*
X120289396Y-81398809D01*
X120337015Y-81494047D01*
X120384634Y-81541666D01*
X120479872Y-81589285D01*
X120670348Y-81589285D01*
X120765586Y-81541666D01*
X120813205Y-81494047D01*
X120860824Y-81398809D01*
X120860824Y-81208333D01*
X120813205Y-81113095D01*
X120765586Y-81065476D01*
X120670348Y-81017857D01*
X120479872Y-81017857D01*
X120384634Y-81065476D01*
X120337015Y-81113095D01*
X120289396Y-81208333D01*
X120575110Y-80636904D02*
X120575110Y-80160714D01*
X120860824Y-80732142D02*
X119860824Y-80398809D01*
X120860824Y-80065476D01*
X120860824Y-79160714D02*
X120384634Y-79494047D01*
X120860824Y-79732142D02*
X119860824Y-79732142D01*
X119860824Y-79351190D01*
X119908444Y-79255952D01*
X119956063Y-79208333D01*
X120051301Y-79160714D01*
X120194158Y-79160714D01*
X120289396Y-79208333D01*
X120337015Y-79255952D01*
X120384634Y-79351190D01*
X120384634Y-79732142D01*
X119860824Y-78541666D02*
X119860824Y-78446428D01*
X119908444Y-78351190D01*
X119956063Y-78303571D01*
X120051301Y-78255952D01*
X120241777Y-78208333D01*
X120479872Y-78208333D01*
X120670348Y-78255952D01*
X120765586Y-78303571D01*
X120813205Y-78351190D01*
X120860824Y-78446428D01*
X120860824Y-78541666D01*
X120813205Y-78636904D01*
X120765586Y-78684523D01*
X120670348Y-78732142D01*
X120479872Y-78779761D01*
X120241777Y-78779761D01*
X120051301Y-78732142D01*
X119956063Y-78684523D01*
X119908444Y-78636904D01*
X119860824Y-78541666D01*
X119860824Y-77303571D02*
X119860824Y-77779761D01*
X120337015Y-77827380D01*
X120289396Y-77779761D01*
X120241777Y-77684523D01*
X120241777Y-77446428D01*
X120289396Y-77351190D01*
X120337015Y-77303571D01*
X120432253Y-77255952D01*
X120670348Y-77255952D01*
X120765586Y-77303571D01*
X120813205Y-77351190D01*
X120860824Y-77446428D01*
X120860824Y-77684523D01*
X120813205Y-77779761D01*
X120765586Y-77827380D01*
X120479872Y-76827380D02*
X120479872Y-76065476D01*
X119956063Y-75636904D02*
X119908444Y-75589285D01*
X119860824Y-75494047D01*
X119860824Y-75255952D01*
X119908444Y-75160714D01*
X119956063Y-75113095D01*
X120051301Y-75065476D01*
X120146539Y-75065476D01*
X120289396Y-75113095D01*
X120860824Y-75684523D01*
X120860824Y-75065476D01*
%TO.C,LED2*%
X193111380Y-76109047D02*
X193111380Y-76585238D01*
X192111380Y-76585238D01*
X192587571Y-75775714D02*
X192587571Y-75442380D01*
X193111380Y-75299523D02*
X193111380Y-75775714D01*
X192111380Y-75775714D01*
X192111380Y-75299523D01*
X193111380Y-74870952D02*
X192111380Y-74870952D01*
X192111380Y-74632857D01*
X192159000Y-74490000D01*
X192254238Y-74394761D01*
X192349476Y-74347142D01*
X192539952Y-74299523D01*
X192682809Y-74299523D01*
X192873285Y-74347142D01*
X192968523Y-74394761D01*
X193063761Y-74490000D01*
X193111380Y-74632857D01*
X193111380Y-74870952D01*
X192206619Y-73918571D02*
X192159000Y-73870952D01*
X192111380Y-73775714D01*
X192111380Y-73537619D01*
X192159000Y-73442380D01*
X192206619Y-73394761D01*
X192301857Y-73347142D01*
X192397095Y-73347142D01*
X192539952Y-73394761D01*
X193111380Y-73966190D01*
X193111380Y-73347142D01*
%TO.C,ICS-UART1*%
X86360428Y-87468380D02*
X86360428Y-86468380D01*
X87408047Y-87373142D02*
X87360428Y-87420761D01*
X87217571Y-87468380D01*
X87122333Y-87468380D01*
X86979476Y-87420761D01*
X86884238Y-87325523D01*
X86836619Y-87230285D01*
X86789000Y-87039809D01*
X86789000Y-86896952D01*
X86836619Y-86706476D01*
X86884238Y-86611238D01*
X86979476Y-86516000D01*
X87122333Y-86468380D01*
X87217571Y-86468380D01*
X87360428Y-86516000D01*
X87408047Y-86563619D01*
X87789000Y-87420761D02*
X87931857Y-87468380D01*
X88169952Y-87468380D01*
X88265190Y-87420761D01*
X88312809Y-87373142D01*
X88360428Y-87277904D01*
X88360428Y-87182666D01*
X88312809Y-87087428D01*
X88265190Y-87039809D01*
X88169952Y-86992190D01*
X87979476Y-86944571D01*
X87884238Y-86896952D01*
X87836619Y-86849333D01*
X87789000Y-86754095D01*
X87789000Y-86658857D01*
X87836619Y-86563619D01*
X87884238Y-86516000D01*
X87979476Y-86468380D01*
X88217571Y-86468380D01*
X88360428Y-86516000D01*
X88789000Y-87087428D02*
X89550904Y-87087428D01*
X90027095Y-86468380D02*
X90027095Y-87277904D01*
X90074714Y-87373142D01*
X90122333Y-87420761D01*
X90217571Y-87468380D01*
X90408047Y-87468380D01*
X90503285Y-87420761D01*
X90550904Y-87373142D01*
X90598523Y-87277904D01*
X90598523Y-86468380D01*
X91027095Y-87182666D02*
X91503285Y-87182666D01*
X90931857Y-87468380D02*
X91265190Y-86468380D01*
X91598523Y-87468380D01*
X92503285Y-87468380D02*
X92169952Y-86992190D01*
X91931857Y-87468380D02*
X91931857Y-86468380D01*
X92312809Y-86468380D01*
X92408047Y-86516000D01*
X92455666Y-86563619D01*
X92503285Y-86658857D01*
X92503285Y-86801714D01*
X92455666Y-86896952D01*
X92408047Y-86944571D01*
X92312809Y-86992190D01*
X91931857Y-86992190D01*
X92789000Y-86468380D02*
X93360428Y-86468380D01*
X93074714Y-87468380D02*
X93074714Y-86468380D01*
%TO.C,R2*%
X124312619Y-57510476D02*
X124265000Y-57462857D01*
X124217380Y-57367619D01*
X124217380Y-57129523D01*
X124265000Y-57034285D01*
X124312619Y-56986666D01*
X124407857Y-56939047D01*
X124503095Y-56939047D01*
X124645952Y-56986666D01*
X125217380Y-57558095D01*
X125217380Y-56939047D01*
X125217380Y-56510476D02*
X124217380Y-56510476D01*
X124836428Y-56415238D02*
X125217380Y-56129523D01*
X124550714Y-56129523D02*
X124931666Y-56510476D01*
%TO.C,Under-UART1*%
X99953047Y-86447380D02*
X99953047Y-87256904D01*
X100000666Y-87352142D01*
X100048285Y-87399761D01*
X100143523Y-87447380D01*
X100334000Y-87447380D01*
X100429238Y-87399761D01*
X100476857Y-87352142D01*
X100524476Y-87256904D01*
X100524476Y-86447380D01*
X101000666Y-86780714D02*
X101000666Y-87447380D01*
X101000666Y-86875952D02*
X101048285Y-86828333D01*
X101143523Y-86780714D01*
X101286380Y-86780714D01*
X101381619Y-86828333D01*
X101429238Y-86923571D01*
X101429238Y-87447380D01*
X102334000Y-87447380D02*
X102334000Y-86447380D01*
X102334000Y-87399761D02*
X102238761Y-87447380D01*
X102048285Y-87447380D01*
X101953047Y-87399761D01*
X101905428Y-87352142D01*
X101857809Y-87256904D01*
X101857809Y-86971190D01*
X101905428Y-86875952D01*
X101953047Y-86828333D01*
X102048285Y-86780714D01*
X102238761Y-86780714D01*
X102334000Y-86828333D01*
X103191142Y-87399761D02*
X103095904Y-87447380D01*
X102905428Y-87447380D01*
X102810190Y-87399761D01*
X102762571Y-87304523D01*
X102762571Y-86923571D01*
X102810190Y-86828333D01*
X102905428Y-86780714D01*
X103095904Y-86780714D01*
X103191142Y-86828333D01*
X103238761Y-86923571D01*
X103238761Y-87018809D01*
X102762571Y-87114047D01*
X103667333Y-87447380D02*
X103667333Y-86780714D01*
X103667333Y-86971190D02*
X103714952Y-86875952D01*
X103762571Y-86828333D01*
X103857809Y-86780714D01*
X103953047Y-86780714D01*
X104286380Y-87066428D02*
X105048285Y-87066428D01*
X105524476Y-86447380D02*
X105524476Y-87256904D01*
X105572095Y-87352142D01*
X105619714Y-87399761D01*
X105714952Y-87447380D01*
X105905428Y-87447380D01*
X106000666Y-87399761D01*
X106048285Y-87352142D01*
X106095904Y-87256904D01*
X106095904Y-86447380D01*
X106524476Y-87161666D02*
X107000666Y-87161666D01*
X106429238Y-87447380D02*
X106762571Y-86447380D01*
X107095904Y-87447380D01*
X108000666Y-87447380D02*
X107667333Y-86971190D01*
X107429238Y-87447380D02*
X107429238Y-86447380D01*
X107810190Y-86447380D01*
X107905428Y-86495000D01*
X107953047Y-86542619D01*
X108000666Y-86637857D01*
X108000666Y-86780714D01*
X107953047Y-86875952D01*
X107905428Y-86923571D01*
X107810190Y-86971190D01*
X107429238Y-86971190D01*
X108286380Y-86447380D02*
X108857809Y-86447380D01*
X108572095Y-87447380D02*
X108572095Y-86447380D01*
%TO.C,ICS-board1*%
X133313809Y-87752380D02*
X133313809Y-86752380D01*
X134361428Y-87657142D02*
X134313809Y-87704761D01*
X134170952Y-87752380D01*
X134075714Y-87752380D01*
X133932857Y-87704761D01*
X133837619Y-87609523D01*
X133790000Y-87514285D01*
X133742380Y-87323809D01*
X133742380Y-87180952D01*
X133790000Y-86990476D01*
X133837619Y-86895238D01*
X133932857Y-86800000D01*
X134075714Y-86752380D01*
X134170952Y-86752380D01*
X134313809Y-86800000D01*
X134361428Y-86847619D01*
X134742380Y-87704761D02*
X134885238Y-87752380D01*
X135123333Y-87752380D01*
X135218571Y-87704761D01*
X135266190Y-87657142D01*
X135313809Y-87561904D01*
X135313809Y-87466666D01*
X135266190Y-87371428D01*
X135218571Y-87323809D01*
X135123333Y-87276190D01*
X134932857Y-87228571D01*
X134837619Y-87180952D01*
X134790000Y-87133333D01*
X134742380Y-87038095D01*
X134742380Y-86942857D01*
X134790000Y-86847619D01*
X134837619Y-86800000D01*
X134932857Y-86752380D01*
X135170952Y-86752380D01*
X135313809Y-86800000D01*
%TO.C,Air-UART1*%
X81769333Y-61912904D02*
X81769333Y-62389095D01*
X81483619Y-61817666D02*
X82483619Y-62151000D01*
X81483619Y-62484333D01*
X81483619Y-62817666D02*
X82150285Y-62817666D01*
X82483619Y-62817666D02*
X82436000Y-62770047D01*
X82388380Y-62817666D01*
X82436000Y-62865285D01*
X82483619Y-62817666D01*
X82388380Y-62817666D01*
X81483619Y-63293857D02*
X82150285Y-63293857D01*
X81959809Y-63293857D02*
X82055047Y-63341476D01*
X82102666Y-63389095D01*
X82150285Y-63484333D01*
X82150285Y-63579571D01*
X81864571Y-63912904D02*
X81864571Y-64674809D01*
X82483619Y-65151000D02*
X81674095Y-65151000D01*
X81578857Y-65198619D01*
X81531238Y-65246238D01*
X81483619Y-65341476D01*
X81483619Y-65531952D01*
X81531238Y-65627190D01*
X81578857Y-65674809D01*
X81674095Y-65722428D01*
X82483619Y-65722428D01*
X81769333Y-66151000D02*
X81769333Y-66627190D01*
X81483619Y-66055761D02*
X82483619Y-66389095D01*
X81483619Y-66722428D01*
X81483619Y-67627190D02*
X81959809Y-67293857D01*
X81483619Y-67055761D02*
X82483619Y-67055761D01*
X82483619Y-67436714D01*
X82436000Y-67531952D01*
X82388380Y-67579571D01*
X82293142Y-67627190D01*
X82150285Y-67627190D01*
X82055047Y-67579571D01*
X82007428Y-67531952D01*
X81959809Y-67436714D01*
X81959809Y-67055761D01*
X82483619Y-67912904D02*
X82483619Y-68484333D01*
X81483619Y-68198619D02*
X82483619Y-68198619D01*
%TO.C,D2*%
X102567824Y-74556904D02*
X101567824Y-74556904D01*
X102567824Y-73985476D02*
X101996396Y-74414047D01*
X101567824Y-73985476D02*
X102139253Y-74556904D01*
%TO.C,R1*%
X128107619Y-57510476D02*
X128060000Y-57462857D01*
X128012380Y-57367619D01*
X128012380Y-57129523D01*
X128060000Y-57034285D01*
X128107619Y-56986666D01*
X128202857Y-56939047D01*
X128298095Y-56939047D01*
X128440952Y-56986666D01*
X129012380Y-57558095D01*
X129012380Y-56939047D01*
X129012380Y-56510476D02*
X128012380Y-56510476D01*
X128631428Y-56415238D02*
X129012380Y-56129523D01*
X128345714Y-56129523D02*
X128726666Y-56510476D01*
%TO.C,Y1*%
X176652380Y-58629523D02*
X176652380Y-59200952D01*
X176652380Y-58915238D02*
X175652380Y-58915238D01*
X175795238Y-59010476D01*
X175890476Y-59105714D01*
X175938095Y-59200952D01*
X175652380Y-57772380D02*
X175652380Y-57962857D01*
X175700000Y-58058095D01*
X175747619Y-58105714D01*
X175890476Y-58200952D01*
X176080952Y-58248571D01*
X176461904Y-58248571D01*
X176557142Y-58200952D01*
X176604761Y-58153333D01*
X176652380Y-58058095D01*
X176652380Y-57867619D01*
X176604761Y-57772380D01*
X176557142Y-57724761D01*
X176461904Y-57677142D01*
X176223809Y-57677142D01*
X176128571Y-57724761D01*
X176080952Y-57772380D01*
X176033333Y-57867619D01*
X176033333Y-58058095D01*
X176080952Y-58153333D01*
X176128571Y-58200952D01*
X176223809Y-58248571D01*
X176652380Y-57248571D02*
X175652380Y-57248571D01*
X176366666Y-56915238D01*
X175652380Y-56581904D01*
X176652380Y-56581904D01*
X176652380Y-56105714D02*
X175652380Y-56105714D01*
X176128571Y-56105714D02*
X176128571Y-55534285D01*
X176652380Y-55534285D02*
X175652380Y-55534285D01*
X175985714Y-55058095D02*
X175985714Y-54534285D01*
X176652380Y-55058095D01*
X176652380Y-54534285D01*
%TO.C,Speaker1*%
X81637238Y-81185095D02*
X81589619Y-81327952D01*
X81589619Y-81566047D01*
X81637238Y-81661285D01*
X81684857Y-81708904D01*
X81780095Y-81756523D01*
X81875333Y-81756523D01*
X81970571Y-81708904D01*
X82018190Y-81661285D01*
X82065809Y-81566047D01*
X82113428Y-81375571D01*
X82161047Y-81280333D01*
X82208666Y-81232714D01*
X82303904Y-81185095D01*
X82399142Y-81185095D01*
X82494380Y-81232714D01*
X82542000Y-81280333D01*
X82589619Y-81375571D01*
X82589619Y-81613666D01*
X82542000Y-81756523D01*
X82256285Y-82185095D02*
X81256285Y-82185095D01*
X82208666Y-82185095D02*
X82256285Y-82280333D01*
X82256285Y-82470809D01*
X82208666Y-82566047D01*
X82161047Y-82613666D01*
X82065809Y-82661285D01*
X81780095Y-82661285D01*
X81684857Y-82613666D01*
X81637238Y-82566047D01*
X81589619Y-82470809D01*
X81589619Y-82280333D01*
X81637238Y-82185095D01*
X81637238Y-83470809D02*
X81589619Y-83375571D01*
X81589619Y-83185095D01*
X81637238Y-83089857D01*
X81732476Y-83042238D01*
X82113428Y-83042238D01*
X82208666Y-83089857D01*
X82256285Y-83185095D01*
X82256285Y-83375571D01*
X82208666Y-83470809D01*
X82113428Y-83518428D01*
X82018190Y-83518428D01*
X81922952Y-83042238D01*
X81589619Y-84375571D02*
X82113428Y-84375571D01*
X82208666Y-84327952D01*
X82256285Y-84232714D01*
X82256285Y-84042238D01*
X82208666Y-83947000D01*
X81637238Y-84375571D02*
X81589619Y-84280333D01*
X81589619Y-84042238D01*
X81637238Y-83947000D01*
X81732476Y-83899380D01*
X81827714Y-83899380D01*
X81922952Y-83947000D01*
X81970571Y-84042238D01*
X81970571Y-84280333D01*
X82018190Y-84375571D01*
X81589619Y-84851761D02*
X82589619Y-84851761D01*
X81970571Y-84947000D02*
X81589619Y-85232714D01*
X82256285Y-85232714D02*
X81875333Y-84851761D01*
X81637238Y-86042238D02*
X81589619Y-85947000D01*
X81589619Y-85756523D01*
X81637238Y-85661285D01*
X81732476Y-85613666D01*
X82113428Y-85613666D01*
X82208666Y-85661285D01*
X82256285Y-85756523D01*
X82256285Y-85947000D01*
X82208666Y-86042238D01*
X82113428Y-86089857D01*
X82018190Y-86089857D01*
X81922952Y-85613666D01*
X81589619Y-86518428D02*
X82256285Y-86518428D01*
X82065809Y-86518428D02*
X82161047Y-86566047D01*
X82208666Y-86613666D01*
X82256285Y-86708904D01*
X82256285Y-86804142D01*
%TO.C,M78AR05-3*%
X95460824Y-83636904D02*
X94460824Y-83636904D01*
X95175110Y-83303571D01*
X94460824Y-82970238D01*
X95460824Y-82970238D01*
X94460824Y-82589285D02*
X94460824Y-81922619D01*
X95460824Y-82351190D01*
X94889396Y-81398809D02*
X94841777Y-81494047D01*
X94794158Y-81541666D01*
X94698920Y-81589285D01*
X94651301Y-81589285D01*
X94556063Y-81541666D01*
X94508444Y-81494047D01*
X94460824Y-81398809D01*
X94460824Y-81208333D01*
X94508444Y-81113095D01*
X94556063Y-81065476D01*
X94651301Y-81017857D01*
X94698920Y-81017857D01*
X94794158Y-81065476D01*
X94841777Y-81113095D01*
X94889396Y-81208333D01*
X94889396Y-81398809D01*
X94937015Y-81494047D01*
X94984634Y-81541666D01*
X95079872Y-81589285D01*
X95270348Y-81589285D01*
X95365586Y-81541666D01*
X95413205Y-81494047D01*
X95460824Y-81398809D01*
X95460824Y-81208333D01*
X95413205Y-81113095D01*
X95365586Y-81065476D01*
X95270348Y-81017857D01*
X95079872Y-81017857D01*
X94984634Y-81065476D01*
X94937015Y-81113095D01*
X94889396Y-81208333D01*
X95175110Y-80636904D02*
X95175110Y-80160714D01*
X95460824Y-80732142D02*
X94460824Y-80398809D01*
X95460824Y-80065476D01*
X95460824Y-79160714D02*
X94984634Y-79494047D01*
X95460824Y-79732142D02*
X94460824Y-79732142D01*
X94460824Y-79351190D01*
X94508444Y-79255952D01*
X94556063Y-79208333D01*
X94651301Y-79160714D01*
X94794158Y-79160714D01*
X94889396Y-79208333D01*
X94937015Y-79255952D01*
X94984634Y-79351190D01*
X94984634Y-79732142D01*
X94460824Y-78541666D02*
X94460824Y-78446428D01*
X94508444Y-78351190D01*
X94556063Y-78303571D01*
X94651301Y-78255952D01*
X94841777Y-78208333D01*
X95079872Y-78208333D01*
X95270348Y-78255952D01*
X95365586Y-78303571D01*
X95413205Y-78351190D01*
X95460824Y-78446428D01*
X95460824Y-78541666D01*
X95413205Y-78636904D01*
X95365586Y-78684523D01*
X95270348Y-78732142D01*
X95079872Y-78779761D01*
X94841777Y-78779761D01*
X94651301Y-78732142D01*
X94556063Y-78684523D01*
X94508444Y-78636904D01*
X94460824Y-78541666D01*
X94460824Y-77303571D02*
X94460824Y-77779761D01*
X94937015Y-77827380D01*
X94889396Y-77779761D01*
X94841777Y-77684523D01*
X94841777Y-77446428D01*
X94889396Y-77351190D01*
X94937015Y-77303571D01*
X95032253Y-77255952D01*
X95270348Y-77255952D01*
X95365586Y-77303571D01*
X95413205Y-77351190D01*
X95460824Y-77446428D01*
X95460824Y-77684523D01*
X95413205Y-77779761D01*
X95365586Y-77827380D01*
X95079872Y-76827380D02*
X95079872Y-76065476D01*
X94460824Y-75684523D02*
X94460824Y-75065476D01*
X94841777Y-75398809D01*
X94841777Y-75255952D01*
X94889396Y-75160714D01*
X94937015Y-75113095D01*
X95032253Y-75065476D01*
X95270348Y-75065476D01*
X95365586Y-75113095D01*
X95413205Y-75160714D01*
X95460824Y-75255952D01*
X95460824Y-75541666D01*
X95413205Y-75636904D01*
X95365586Y-75684523D01*
%TO.C,C1*%
X117262030Y-67016190D02*
X117309649Y-67063809D01*
X117357268Y-67206666D01*
X117357268Y-67301904D01*
X117309649Y-67444761D01*
X117214411Y-67540000D01*
X117119173Y-67587619D01*
X116928697Y-67635238D01*
X116785840Y-67635238D01*
X116595364Y-67587619D01*
X116500126Y-67540000D01*
X116404888Y-67444761D01*
X116357268Y-67301904D01*
X116357268Y-67206666D01*
X116404888Y-67063809D01*
X116452507Y-67016190D01*
X117452507Y-66825714D02*
X117452507Y-66063809D01*
X116357268Y-65349523D02*
X116357268Y-65825714D01*
X116833459Y-65873333D01*
X116785840Y-65825714D01*
X116738221Y-65730476D01*
X116738221Y-65492380D01*
X116785840Y-65397142D01*
X116833459Y-65349523D01*
X116928697Y-65301904D01*
X117166792Y-65301904D01*
X117262030Y-65349523D01*
X117309649Y-65397142D01*
X117357268Y-65492380D01*
X117357268Y-65730476D01*
X117309649Y-65825714D01*
X117262030Y-65873333D01*
X116357268Y-65016190D02*
X117357268Y-64682857D01*
X116357268Y-64349523D01*
%TO.C,DPS310*%
X153213333Y-82672380D02*
X153213333Y-81672380D01*
X153451428Y-81672380D01*
X153594285Y-81720000D01*
X153689523Y-81815238D01*
X153737142Y-81910476D01*
X153784761Y-82100952D01*
X153784761Y-82243809D01*
X153737142Y-82434285D01*
X153689523Y-82529523D01*
X153594285Y-82624761D01*
X153451428Y-82672380D01*
X153213333Y-82672380D01*
X154213333Y-82672380D02*
X154213333Y-81672380D01*
X154594285Y-81672380D01*
X154689523Y-81720000D01*
X154737142Y-81767619D01*
X154784761Y-81862857D01*
X154784761Y-82005714D01*
X154737142Y-82100952D01*
X154689523Y-82148571D01*
X154594285Y-82196190D01*
X154213333Y-82196190D01*
X155165714Y-82624761D02*
X155308571Y-82672380D01*
X155546666Y-82672380D01*
X155641904Y-82624761D01*
X155689523Y-82577142D01*
X155737142Y-82481904D01*
X155737142Y-82386666D01*
X155689523Y-82291428D01*
X155641904Y-82243809D01*
X155546666Y-82196190D01*
X155356190Y-82148571D01*
X155260952Y-82100952D01*
X155213333Y-82053333D01*
X155165714Y-81958095D01*
X155165714Y-81862857D01*
X155213333Y-81767619D01*
X155260952Y-81720000D01*
X155356190Y-81672380D01*
X155594285Y-81672380D01*
X155737142Y-81720000D01*
X156070476Y-81672380D02*
X156689523Y-81672380D01*
X156356190Y-82053333D01*
X156499047Y-82053333D01*
X156594285Y-82100952D01*
X156641904Y-82148571D01*
X156689523Y-82243809D01*
X156689523Y-82481904D01*
X156641904Y-82577142D01*
X156594285Y-82624761D01*
X156499047Y-82672380D01*
X156213333Y-82672380D01*
X156118095Y-82624761D01*
X156070476Y-82577142D01*
X157641904Y-82672380D02*
X157070476Y-82672380D01*
X157356190Y-82672380D02*
X157356190Y-81672380D01*
X157260952Y-81815238D01*
X157165714Y-81910476D01*
X157070476Y-81958095D01*
X158260952Y-81672380D02*
X158356190Y-81672380D01*
X158451428Y-81720000D01*
X158499047Y-81767619D01*
X158546666Y-81862857D01*
X158594285Y-82053333D01*
X158594285Y-82291428D01*
X158546666Y-82481904D01*
X158499047Y-82577142D01*
X158451428Y-82624761D01*
X158356190Y-82672380D01*
X158260952Y-82672380D01*
X158165714Y-82624761D01*
X158118095Y-82577142D01*
X158070476Y-82481904D01*
X158022857Y-82291428D01*
X158022857Y-82053333D01*
X158070476Y-81862857D01*
X158118095Y-81767619D01*
X158165714Y-81720000D01*
X158260952Y-81672380D01*
%TO.C,M78AR05-1*%
X108414824Y-83586404D02*
X107414824Y-83586404D01*
X108129110Y-83253071D01*
X107414824Y-82919738D01*
X108414824Y-82919738D01*
X107414824Y-82538785D02*
X107414824Y-81872119D01*
X108414824Y-82300690D01*
X107843396Y-81348309D02*
X107795777Y-81443547D01*
X107748158Y-81491166D01*
X107652920Y-81538785D01*
X107605301Y-81538785D01*
X107510063Y-81491166D01*
X107462444Y-81443547D01*
X107414824Y-81348309D01*
X107414824Y-81157833D01*
X107462444Y-81062595D01*
X107510063Y-81014976D01*
X107605301Y-80967357D01*
X107652920Y-80967357D01*
X107748158Y-81014976D01*
X107795777Y-81062595D01*
X107843396Y-81157833D01*
X107843396Y-81348309D01*
X107891015Y-81443547D01*
X107938634Y-81491166D01*
X108033872Y-81538785D01*
X108224348Y-81538785D01*
X108319586Y-81491166D01*
X108367205Y-81443547D01*
X108414824Y-81348309D01*
X108414824Y-81157833D01*
X108367205Y-81062595D01*
X108319586Y-81014976D01*
X108224348Y-80967357D01*
X108033872Y-80967357D01*
X107938634Y-81014976D01*
X107891015Y-81062595D01*
X107843396Y-81157833D01*
X108129110Y-80586404D02*
X108129110Y-80110214D01*
X108414824Y-80681642D02*
X107414824Y-80348309D01*
X108414824Y-80014976D01*
X108414824Y-79110214D02*
X107938634Y-79443547D01*
X108414824Y-79681642D02*
X107414824Y-79681642D01*
X107414824Y-79300690D01*
X107462444Y-79205452D01*
X107510063Y-79157833D01*
X107605301Y-79110214D01*
X107748158Y-79110214D01*
X107843396Y-79157833D01*
X107891015Y-79205452D01*
X107938634Y-79300690D01*
X107938634Y-79681642D01*
X107414824Y-78491166D02*
X107414824Y-78395928D01*
X107462444Y-78300690D01*
X107510063Y-78253071D01*
X107605301Y-78205452D01*
X107795777Y-78157833D01*
X108033872Y-78157833D01*
X108224348Y-78205452D01*
X108319586Y-78253071D01*
X108367205Y-78300690D01*
X108414824Y-78395928D01*
X108414824Y-78491166D01*
X108367205Y-78586404D01*
X108319586Y-78634023D01*
X108224348Y-78681642D01*
X108033872Y-78729261D01*
X107795777Y-78729261D01*
X107605301Y-78681642D01*
X107510063Y-78634023D01*
X107462444Y-78586404D01*
X107414824Y-78491166D01*
X107414824Y-77253071D02*
X107414824Y-77729261D01*
X107891015Y-77776880D01*
X107843396Y-77729261D01*
X107795777Y-77634023D01*
X107795777Y-77395928D01*
X107843396Y-77300690D01*
X107891015Y-77253071D01*
X107986253Y-77205452D01*
X108224348Y-77205452D01*
X108319586Y-77253071D01*
X108367205Y-77300690D01*
X108414824Y-77395928D01*
X108414824Y-77634023D01*
X108367205Y-77729261D01*
X108319586Y-77776880D01*
X108033872Y-76776880D02*
X108033872Y-76014976D01*
X108414824Y-75014976D02*
X108414824Y-75586404D01*
X108414824Y-75300690D02*
X107414824Y-75300690D01*
X107557682Y-75395928D01*
X107652920Y-75491166D01*
X107700539Y-75586404D01*
%TO.C,D3*%
X86807380Y-74556904D02*
X85807380Y-74556904D01*
X86807380Y-73985476D02*
X86235952Y-74414047D01*
X85807380Y-73985476D02*
X86378809Y-74556904D01*
%TO.C,AE-BNO55*%
X130480476Y-68416666D02*
X130956666Y-68416666D01*
X130385238Y-68702380D02*
X130718571Y-67702380D01*
X131051904Y-68702380D01*
X131385238Y-68178571D02*
X131718571Y-68178571D01*
X131861428Y-68702380D02*
X131385238Y-68702380D01*
X131385238Y-67702380D01*
X131861428Y-67702380D01*
X132290000Y-68321428D02*
X133051904Y-68321428D01*
X133861428Y-68178571D02*
X134004285Y-68226190D01*
X134051904Y-68273809D01*
X134099523Y-68369047D01*
X134099523Y-68511904D01*
X134051904Y-68607142D01*
X134004285Y-68654761D01*
X133909047Y-68702380D01*
X133528095Y-68702380D01*
X133528095Y-67702380D01*
X133861428Y-67702380D01*
X133956666Y-67750000D01*
X134004285Y-67797619D01*
X134051904Y-67892857D01*
X134051904Y-67988095D01*
X134004285Y-68083333D01*
X133956666Y-68130952D01*
X133861428Y-68178571D01*
X133528095Y-68178571D01*
X134528095Y-68702380D02*
X134528095Y-67702380D01*
X135099523Y-68702380D01*
X135099523Y-67702380D01*
X135766190Y-67702380D02*
X135956666Y-67702380D01*
X136051904Y-67750000D01*
X136147142Y-67845238D01*
X136194761Y-68035714D01*
X136194761Y-68369047D01*
X136147142Y-68559523D01*
X136051904Y-68654761D01*
X135956666Y-68702380D01*
X135766190Y-68702380D01*
X135670952Y-68654761D01*
X135575714Y-68559523D01*
X135528095Y-68369047D01*
X135528095Y-68035714D01*
X135575714Y-67845238D01*
X135670952Y-67750000D01*
X135766190Y-67702380D01*
X137099523Y-67702380D02*
X136623333Y-67702380D01*
X136575714Y-68178571D01*
X136623333Y-68130952D01*
X136718571Y-68083333D01*
X136956666Y-68083333D01*
X137051904Y-68130952D01*
X137099523Y-68178571D01*
X137147142Y-68273809D01*
X137147142Y-68511904D01*
X137099523Y-68607142D01*
X137051904Y-68654761D01*
X136956666Y-68702380D01*
X136718571Y-68702380D01*
X136623333Y-68654761D01*
X136575714Y-68607142D01*
X138051904Y-67702380D02*
X137575714Y-67702380D01*
X137528095Y-68178571D01*
X137575714Y-68130952D01*
X137670952Y-68083333D01*
X137909047Y-68083333D01*
X138004285Y-68130952D01*
X138051904Y-68178571D01*
X138099523Y-68273809D01*
X138099523Y-68511904D01*
X138051904Y-68607142D01*
X138004285Y-68654761D01*
X137909047Y-68702380D01*
X137670952Y-68702380D01*
X137575714Y-68654761D01*
X137528095Y-68607142D01*
%TO.C,D1*%
X114112380Y-51696904D02*
X113112380Y-51696904D01*
X114112380Y-51125476D02*
X113540952Y-51554047D01*
X113112380Y-51125476D02*
X113683809Y-51696904D01*
%TO.C,LED1*%
X193111380Y-90019047D02*
X193111380Y-90495238D01*
X192111380Y-90495238D01*
X192587571Y-89685714D02*
X192587571Y-89352380D01*
X193111380Y-89209523D02*
X193111380Y-89685714D01*
X192111380Y-89685714D01*
X192111380Y-89209523D01*
X193111380Y-88780952D02*
X192111380Y-88780952D01*
X192111380Y-88542857D01*
X192159000Y-88400000D01*
X192254238Y-88304761D01*
X192349476Y-88257142D01*
X192539952Y-88209523D01*
X192682809Y-88209523D01*
X192873285Y-88257142D01*
X192968523Y-88304761D01*
X193063761Y-88400000D01*
X193111380Y-88542857D01*
X193111380Y-88780952D01*
X193111380Y-87257142D02*
X193111380Y-87828571D01*
X193111380Y-87542857D02*
X192111380Y-87542857D01*
X192254238Y-87638095D01*
X192349476Y-87733333D01*
X192397095Y-87828571D01*
D12*
%TO.C,U1*%
X95830000Y-54423000D02*
X104830000Y-54423000D01*
X104830000Y-54423000D02*
X104830000Y-47093000D01*
X104830000Y-47093000D02*
X95830000Y-47093000D01*
X95830000Y-47093000D02*
X95830000Y-54423000D01*
X91440000Y-69493000D02*
X109220000Y-69493000D01*
X109220000Y-69493000D02*
X109220000Y-48493000D01*
X109220000Y-48493000D02*
X91440000Y-48493000D01*
X91440000Y-48493000D02*
X91440000Y-69493000D01*
%TO.C,GPS-UART1*%
X191350000Y-65830000D02*
X191350000Y-59690000D01*
X197960000Y-54940000D02*
X197960000Y-54440000D01*
X186850000Y-52130000D02*
X186850000Y-53550000D01*
X186850000Y-67250000D02*
X186850000Y-65830000D01*
X197960000Y-64940000D02*
X197960000Y-64440000D01*
X186850000Y-53550000D02*
X191350000Y-53550000D01*
X197960000Y-59940000D02*
X197960000Y-59440000D01*
X192460000Y-56940000D02*
X192460000Y-57440000D01*
X187160000Y-64390000D02*
X187760000Y-64690000D01*
X187160000Y-64990000D02*
X187160000Y-64390000D01*
X192460000Y-59940000D02*
X197960000Y-59940000D01*
X197960000Y-62440000D02*
X197960000Y-61940000D01*
X197960000Y-56940000D02*
X192460000Y-56940000D01*
X197960000Y-64440000D02*
X192460000Y-64440000D01*
X191350000Y-53550000D02*
X191350000Y-59690000D01*
X192460000Y-54940000D02*
X197960000Y-54940000D01*
X192460000Y-64440000D02*
X192460000Y-64940000D01*
X192460000Y-62440000D02*
X197960000Y-62440000D01*
X197960000Y-61940000D02*
X192460000Y-61940000D01*
X198570000Y-67250000D02*
X186850000Y-67250000D01*
X197960000Y-54440000D02*
X192460000Y-54440000D01*
X198570000Y-59690000D02*
X198570000Y-52130000D01*
X198570000Y-59690000D02*
X198570000Y-67250000D01*
X197960000Y-57440000D02*
X197960000Y-56940000D01*
X198570000Y-52130000D02*
X186850000Y-52130000D01*
X192460000Y-61940000D02*
X192460000Y-62440000D01*
X192460000Y-64940000D02*
X197960000Y-64940000D01*
X192460000Y-59440000D02*
X192460000Y-59940000D01*
X186850000Y-65830000D02*
X191350000Y-65830000D01*
X192460000Y-54440000D02*
X192460000Y-54940000D01*
X192460000Y-57440000D02*
X197960000Y-57440000D01*
X187760000Y-64690000D02*
X187160000Y-64990000D01*
X197960000Y-59440000D02*
X192460000Y-59440000D01*
%TO.C,D4*%
X114131444Y-77675000D02*
X111191444Y-77675000D01*
X114131444Y-82095000D02*
X114131444Y-76655000D01*
X111191444Y-82095000D02*
X114131444Y-82095000D01*
X114131444Y-77435000D02*
X111191444Y-77435000D01*
X111191444Y-76655000D02*
X111191444Y-82095000D01*
X114131444Y-76655000D02*
X111191444Y-76655000D01*
X114131444Y-77555000D02*
X111191444Y-77555000D01*
X112661444Y-75435000D02*
X112661444Y-76655000D01*
X112661444Y-83315000D02*
X112661444Y-82095000D01*
%TO.C,ATP3012*%
X169920000Y-59460000D02*
X169920000Y-54160000D01*
X134240000Y-54160000D02*
X134240000Y-55810000D01*
X169920000Y-54160000D02*
X134240000Y-54160000D01*
X134240000Y-59460000D02*
X169920000Y-59460000D01*
X134240000Y-57810000D02*
X134240000Y-59460000D01*
X134240000Y-57810000D02*
G75*
G03*
X134240000Y-55810000I0J1000000D01*
G01*
%TO.C,G\u002A\u002A\u002A*%
G36*
X177698135Y-62594584D02*
G01*
X177846838Y-62658314D01*
X177904978Y-62740815D01*
X177846621Y-62862935D01*
X177700178Y-62985969D01*
X177508592Y-63080951D01*
X177346211Y-63117719D01*
X177170762Y-63139481D01*
X177060869Y-63168926D01*
X177050609Y-63175748D01*
X176987848Y-63296108D01*
X176942047Y-63478505D01*
X176930674Y-63650589D01*
X176932283Y-63665840D01*
X177010416Y-63848702D01*
X177166274Y-64010452D01*
X177352912Y-64110319D01*
X177459411Y-64123634D01*
X177650662Y-64060938D01*
X177809166Y-63929279D01*
X177893297Y-63768271D01*
X177897059Y-63707105D01*
X177937724Y-63567127D01*
X178052496Y-63412012D01*
X178198344Y-63292493D01*
X178276006Y-63260358D01*
X178369228Y-63297626D01*
X178436688Y-63429364D01*
X178469147Y-63616674D01*
X178457366Y-63820654D01*
X178431927Y-63916945D01*
X178259258Y-64219606D01*
X177986163Y-64476038D01*
X177772771Y-64600500D01*
X177430229Y-64691966D01*
X177088811Y-64655400D01*
X176766091Y-64496154D01*
X176479640Y-64219575D01*
X176466627Y-64202818D01*
X176327734Y-63922555D01*
X176303673Y-63619373D01*
X176382808Y-63315826D01*
X176553508Y-63034468D01*
X176804139Y-62797853D01*
X177123068Y-62628535D01*
X177305788Y-62575889D01*
X177503053Y-62563054D01*
X177698135Y-62594584D01*
G37*
G36*
X173253049Y-66147707D02*
G01*
X173187493Y-66042204D01*
X173164944Y-65966694D01*
X173172278Y-65906890D01*
X173200292Y-65865993D01*
X174131885Y-65865993D01*
X174244611Y-65954051D01*
X174286129Y-65969034D01*
X174419500Y-65949673D01*
X174563914Y-65843450D01*
X174684267Y-65689725D01*
X174745453Y-65527857D01*
X174743026Y-65456752D01*
X174673468Y-65351144D01*
X174544311Y-65363703D01*
X174358596Y-65493695D01*
X174278759Y-65568821D01*
X174143311Y-65739927D01*
X174131885Y-65865993D01*
X173200292Y-65865993D01*
X173241410Y-65805965D01*
X173392426Y-65647139D01*
X173599381Y-65452717D01*
X173836323Y-65245006D01*
X174077307Y-65046311D01*
X174296384Y-64878939D01*
X174467608Y-64765196D01*
X174540445Y-64730738D01*
X174775246Y-64704727D01*
X175023510Y-64743958D01*
X175221275Y-64836527D01*
X175251929Y-64863141D01*
X175334870Y-65010470D01*
X175377768Y-65210997D01*
X175379019Y-65238441D01*
X175384452Y-65492084D01*
X175759026Y-65623867D01*
X176046302Y-65730184D01*
X176217324Y-65815860D01*
X176284270Y-65899835D01*
X176259320Y-66001046D01*
X176154651Y-66138430D01*
X176117232Y-66180896D01*
X175968674Y-66335534D01*
X175868898Y-66400305D01*
X175786896Y-66393479D01*
X175770260Y-66385325D01*
X175640503Y-66327727D01*
X175444334Y-66252971D01*
X175357814Y-66222594D01*
X175165709Y-66166956D01*
X175040991Y-66173289D01*
X174927374Y-66250961D01*
X174873280Y-66303253D01*
X174689825Y-66486709D01*
X174917895Y-66714778D01*
X175053460Y-66872826D01*
X175135153Y-67011447D01*
X175145965Y-67056883D01*
X175100661Y-67171507D01*
X174988636Y-67319926D01*
X174845723Y-67465475D01*
X174707752Y-67571492D01*
X174613203Y-67602038D01*
X174541509Y-67547781D01*
X174397965Y-67410947D01*
X174200165Y-67209264D01*
X173965700Y-66960464D01*
X173830787Y-66813582D01*
X173562391Y-66516455D01*
X173524691Y-66473187D01*
X173373914Y-66300143D01*
X173253049Y-66147707D01*
G37*
G36*
X175736014Y-63803613D02*
G01*
X175867602Y-63881412D01*
X176045280Y-64040545D01*
X176291368Y-64289048D01*
X176308905Y-64307089D01*
X176535797Y-64548447D01*
X176736022Y-64775812D01*
X176884958Y-64960384D01*
X176950470Y-65057569D01*
X177009575Y-65192106D01*
X176997687Y-65293414D01*
X176901988Y-65414045D01*
X176850858Y-65466025D01*
X176705675Y-65588853D01*
X176587029Y-65651331D01*
X176557948Y-65653149D01*
X176485298Y-65598339D01*
X176346116Y-65464449D01*
X176161425Y-65274358D01*
X175952243Y-65050945D01*
X175739593Y-64817087D01*
X175544496Y-64595664D01*
X175387973Y-64409556D01*
X175291045Y-64281639D01*
X175277613Y-64259668D01*
X175268869Y-64146923D01*
X175367400Y-64005622D01*
X175394594Y-63977840D01*
X175521830Y-63859863D01*
X175628196Y-63799110D01*
X175736014Y-63803613D01*
G37*
G36*
X170883940Y-72984437D02*
G01*
X170818027Y-72762370D01*
X170818004Y-72762178D01*
X170764069Y-72657296D01*
X170650239Y-72662206D01*
X170492089Y-72775502D01*
X170473993Y-72793181D01*
X170323366Y-72926947D01*
X170114401Y-73092403D01*
X169955687Y-73208610D01*
X169763298Y-73337952D01*
X169647696Y-73393376D01*
X169579630Y-73383528D01*
X169538287Y-73331992D01*
X169513721Y-73273708D01*
X169523219Y-73211189D01*
X169581474Y-73124853D01*
X169703177Y-72995122D01*
X169903021Y-72802414D01*
X170014591Y-72697235D01*
X170252839Y-72471287D01*
X170410408Y-72311969D01*
X170505135Y-72194495D01*
X170554854Y-72094081D01*
X170577400Y-71985943D01*
X170579762Y-71962230D01*
X171392709Y-71962230D01*
X171438068Y-72040144D01*
X171558483Y-72184374D01*
X171729897Y-72370483D01*
X171928250Y-72574025D01*
X172129485Y-72770560D01*
X172309542Y-72935646D01*
X172444365Y-73044841D01*
X172480824Y-73067700D01*
X172537954Y-73087714D01*
X172601816Y-73076813D01*
X172690507Y-73021529D01*
X172822120Y-72908391D01*
X173014752Y-72723933D01*
X173233464Y-72507491D01*
X173489396Y-72255340D01*
X173665265Y-72089761D01*
X173774142Y-72000439D01*
X173829097Y-71977058D01*
X173843201Y-72009302D01*
X173841510Y-72027628D01*
X173849666Y-72141618D01*
X173883554Y-72172620D01*
X173975319Y-72126746D01*
X174099501Y-72017367D01*
X174215813Y-71886846D01*
X174283967Y-71777550D01*
X174288297Y-71747007D01*
X174220638Y-71727570D01*
X174058232Y-71740611D01*
X173835997Y-71783284D01*
X173832180Y-71784184D01*
X173450821Y-71848752D01*
X173059094Y-71871065D01*
X172688479Y-71853462D01*
X172370458Y-71798276D01*
X172136515Y-71707845D01*
X172063698Y-71652973D01*
X172086701Y-71620951D01*
X172210614Y-71606494D01*
X172280275Y-71607169D01*
X172632334Y-71600059D01*
X173012244Y-71560944D01*
X173347328Y-71497917D01*
X173408427Y-71481469D01*
X173624970Y-71423621D01*
X173805934Y-71381394D01*
X174002836Y-71316929D01*
X174284794Y-71194090D01*
X174624329Y-71027969D01*
X174993962Y-70833660D01*
X175366217Y-70626253D01*
X175713613Y-70420841D01*
X176008674Y-70232515D01*
X176223921Y-70076369D01*
X176292358Y-70015750D01*
X176392948Y-69882476D01*
X176428858Y-69778927D01*
X176470732Y-69699978D01*
X176601155Y-69564293D01*
X176827326Y-69365108D01*
X177155647Y-69096301D01*
X177422734Y-68885101D01*
X177653234Y-68708078D01*
X177826680Y-68580561D01*
X177922603Y-68517871D01*
X177933303Y-68513998D01*
X177967701Y-68512912D01*
X177998537Y-68492071D01*
X178045773Y-68425098D01*
X178129376Y-68285615D01*
X178209226Y-68149456D01*
X178323695Y-67930974D01*
X178434901Y-67679648D01*
X178531142Y-67427950D01*
X178600719Y-67208353D01*
X178631929Y-67053331D01*
X178623609Y-66999442D01*
X178624028Y-66926460D01*
X178635681Y-66912194D01*
X178669937Y-66827716D01*
X178719354Y-66644030D01*
X178775436Y-66394216D01*
X178799836Y-66272893D01*
X178852983Y-66008912D01*
X178898486Y-65800584D01*
X178929385Y-65679021D01*
X178936746Y-65660837D01*
X178965201Y-65582175D01*
X179006336Y-65410086D01*
X179053503Y-65180716D01*
X179100057Y-64930209D01*
X179139350Y-64694711D01*
X179164736Y-64510367D01*
X179169568Y-64413324D01*
X179167249Y-64407315D01*
X179114791Y-64447255D01*
X178975328Y-64574253D01*
X178756978Y-64780437D01*
X178467859Y-65057927D01*
X178116091Y-65398849D01*
X177709792Y-65795326D01*
X177257080Y-66239486D01*
X176766073Y-66723451D01*
X176244890Y-67239345D01*
X176114752Y-67368491D01*
X175558101Y-67919776D01*
X175006636Y-68463286D01*
X174471639Y-68988063D01*
X173964397Y-69483155D01*
X173496193Y-69937605D01*
X173078313Y-70340462D01*
X172722042Y-70680768D01*
X172438666Y-70947568D01*
X172245182Y-71124818D01*
X171964174Y-71379883D01*
X171722164Y-71607780D01*
X171535688Y-71792265D01*
X171421283Y-71917094D01*
X171392709Y-71962230D01*
X170579762Y-71962230D01*
X170585589Y-71903729D01*
X170589492Y-71717970D01*
X170569979Y-71592636D01*
X170559123Y-71573836D01*
X170486097Y-71590415D01*
X170344006Y-71696767D01*
X170187090Y-71843250D01*
X170007975Y-72010105D01*
X169853292Y-72134149D01*
X169760633Y-72186792D01*
X169706100Y-72181018D01*
X169630385Y-72132465D01*
X169519229Y-72027041D01*
X169358378Y-71850654D01*
X169133574Y-71589214D01*
X169020312Y-71455003D01*
X168792039Y-71188419D01*
X168591388Y-70963110D01*
X168435182Y-70797282D01*
X168340250Y-70709146D01*
X168322389Y-70699668D01*
X168246465Y-70741744D01*
X168099543Y-70853664D01*
X167909236Y-71013969D01*
X167845946Y-71069956D01*
X167590592Y-71291290D01*
X167405838Y-71424753D01*
X167266786Y-71477028D01*
X167148536Y-71454801D01*
X167026185Y-71364754D01*
X166965543Y-71306276D01*
X166821680Y-71131738D01*
X166789364Y-71010344D01*
X166792674Y-71001103D01*
X166854575Y-70932980D01*
X167004970Y-70793608D01*
X167228219Y-70596695D01*
X167508684Y-70355944D01*
X167830722Y-70085063D01*
X167970229Y-69969229D01*
X168328390Y-69672807D01*
X168674517Y-69386062D01*
X168987086Y-69126844D01*
X169244577Y-68913006D01*
X169425465Y-68762398D01*
X169456635Y-68736350D01*
X169677683Y-68564771D01*
X169837549Y-68488662D01*
X169968716Y-68507110D01*
X170103663Y-68619208D01*
X170187492Y-68715878D01*
X170364584Y-68930308D01*
X169863570Y-69364394D01*
X169663079Y-69535071D01*
X169523695Y-69663344D01*
X169449041Y-69770971D01*
X169442739Y-69879713D01*
X169508413Y-70011330D01*
X169649683Y-70187583D01*
X169870175Y-70430231D01*
X170078757Y-70656887D01*
X170298136Y-70905794D01*
X170474509Y-71123134D01*
X170590338Y-71286252D01*
X170628221Y-71366560D01*
X170653906Y-71446986D01*
X170716539Y-71410285D01*
X170802114Y-71384344D01*
X170923538Y-71464378D01*
X170957777Y-71497344D01*
X171080507Y-71600470D01*
X171180363Y-71604611D01*
X171299291Y-71530012D01*
X171472421Y-71389641D01*
X171726621Y-71166653D01*
X172052203Y-70870544D01*
X172439476Y-70510807D01*
X172878753Y-70096935D01*
X173360344Y-69638424D01*
X173874560Y-69144766D01*
X174411714Y-68625457D01*
X174962116Y-68089989D01*
X175516077Y-67547858D01*
X176063908Y-67008556D01*
X176595922Y-66481578D01*
X177102430Y-65976418D01*
X177573742Y-65502570D01*
X178000168Y-65069528D01*
X178372023Y-64686785D01*
X178679616Y-64363837D01*
X178913258Y-64110176D01*
X179063262Y-63935297D01*
X179100088Y-63886021D01*
X179242594Y-63641284D01*
X179333294Y-63413152D01*
X179361973Y-63234045D01*
X179332870Y-63147304D01*
X179325972Y-63100275D01*
X179343446Y-63097335D01*
X179396283Y-63040289D01*
X179434786Y-62907082D01*
X179450945Y-62754613D01*
X179436750Y-62639778D01*
X179411647Y-62612882D01*
X179290852Y-62639937D01*
X179215954Y-62763788D01*
X179202463Y-62950316D01*
X179218495Y-63037817D01*
X179243511Y-63242339D01*
X179184640Y-63370804D01*
X179166769Y-63386760D01*
X179028716Y-63500708D01*
X178960322Y-63558747D01*
X178857701Y-63589675D01*
X178752862Y-63500710D01*
X178641100Y-63286437D01*
X178576288Y-63116933D01*
X178482512Y-62854969D01*
X178447081Y-62757825D01*
X178386524Y-62591788D01*
X178350139Y-62493791D01*
X178245024Y-62177683D01*
X178224845Y-62060358D01*
X178711654Y-62060358D01*
X178750686Y-62200811D01*
X178754332Y-62211744D01*
X178826306Y-62378599D01*
X178904271Y-62422086D01*
X179013729Y-62351801D01*
X179045328Y-62321263D01*
X179108644Y-62202530D01*
X179070248Y-62124449D01*
X178935366Y-62044161D01*
X178832474Y-62014929D01*
X178734416Y-62009733D01*
X178711654Y-62060358D01*
X178224845Y-62060358D01*
X178205715Y-61949132D01*
X178230914Y-61779257D01*
X178312160Y-61647389D01*
X178507195Y-61463822D01*
X178669112Y-61403527D01*
X178776477Y-61450560D01*
X178885198Y-61518276D01*
X178935690Y-61523014D01*
X179031670Y-61548088D01*
X179179958Y-61631092D01*
X179215009Y-61655121D01*
X179420908Y-61788492D01*
X179553715Y-61830280D01*
X179640042Y-61779017D01*
X179706500Y-61633231D01*
X179708303Y-61627865D01*
X179808860Y-61425956D01*
X179921772Y-61345786D01*
X180030663Y-61377813D01*
X180119164Y-61512490D01*
X180170903Y-61740273D01*
X180177759Y-61901551D01*
X180189935Y-62180445D01*
X180233856Y-62332446D01*
X180308407Y-62356121D01*
X180412472Y-62250039D01*
X180429472Y-62224537D01*
X180554637Y-62039253D01*
X180698131Y-61838330D01*
X180711801Y-61819863D01*
X180871061Y-61561860D01*
X181021785Y-61244214D01*
X181138809Y-60925616D01*
X181193061Y-60697393D01*
X181184812Y-60512885D01*
X181121268Y-60374334D01*
X181119568Y-60372602D01*
X180998763Y-60317762D01*
X180794376Y-60281454D01*
X180552888Y-60265442D01*
X180320781Y-60271487D01*
X180144537Y-60301352D01*
X180083001Y-60333298D01*
X179994025Y-60371132D01*
X179963944Y-60357327D01*
X179881829Y-60348818D01*
X179863829Y-60362413D01*
X179778461Y-60410109D01*
X179602720Y-60486611D01*
X179373021Y-60576168D01*
X179349721Y-60584781D01*
X179101129Y-60676262D01*
X178886971Y-60755136D01*
X178752280Y-60804815D01*
X178749463Y-60805857D01*
X178585805Y-60874300D01*
X178328800Y-60991160D01*
X178004804Y-61143766D01*
X177640177Y-61319444D01*
X177261273Y-61505524D01*
X176894454Y-61689334D01*
X176631666Y-61824022D01*
X176345671Y-61970086D01*
X176093780Y-62094365D01*
X175905485Y-62182579D01*
X175816223Y-62218913D01*
X175657571Y-62299410D01*
X175596050Y-62349490D01*
X175489673Y-62420265D01*
X175439439Y-62427313D01*
X175352263Y-62452399D01*
X175191655Y-62532827D01*
X175036665Y-62624080D01*
X174840959Y-62740659D01*
X174684728Y-62823543D01*
X174617130Y-62850420D01*
X174505263Y-62894090D01*
X174360110Y-62973517D01*
X174147866Y-63087140D01*
X173950275Y-63164841D01*
X173790447Y-63202815D01*
X173691494Y-63197252D01*
X173676525Y-63144346D01*
X173727806Y-63077688D01*
X173831999Y-62998026D01*
X174039250Y-62860409D01*
X174335749Y-62673229D01*
X174707681Y-62444882D01*
X175141235Y-62183762D01*
X175622599Y-61898259D01*
X176137960Y-61596772D01*
X176668424Y-61290607D01*
X176920849Y-61145628D01*
X177163794Y-61005617D01*
X177331603Y-60908463D01*
X177793998Y-60646198D01*
X178255362Y-60396592D01*
X178689897Y-60172791D01*
X179071803Y-59987938D01*
X179375279Y-59855179D01*
X179468118Y-59819896D01*
X179648098Y-59749583D01*
X179770054Y-59690292D01*
X179790371Y-59675638D01*
X179876331Y-59643283D01*
X180055791Y-59603909D01*
X180274253Y-59568381D01*
X180699669Y-59547749D01*
X181035925Y-59622397D01*
X181294629Y-59798688D01*
X181487393Y-60082986D01*
X181565602Y-60276135D01*
X181616688Y-60501903D01*
X181612887Y-60741088D01*
X181548124Y-61008535D01*
X181416326Y-61319090D01*
X181211417Y-61687596D01*
X180927325Y-62128899D01*
X180635436Y-62549286D01*
X180478284Y-62766575D01*
X180339972Y-62950897D01*
X180248109Y-63065541D01*
X180242351Y-63071967D01*
X180176624Y-63201056D01*
X180124936Y-63401928D01*
X180112157Y-63491884D01*
X180083235Y-63756483D01*
X180049294Y-64054186D01*
X180036447Y-64163419D01*
X180008964Y-64398190D01*
X179986267Y-64599026D01*
X179978357Y-64672898D01*
X179947086Y-64813275D01*
X179915886Y-64871756D01*
X179898987Y-64946373D01*
X179906184Y-64955998D01*
X179917056Y-65040245D01*
X179892260Y-65193068D01*
X179890182Y-65201325D01*
X179846731Y-65421963D01*
X179818766Y-65649589D01*
X179767809Y-65938016D01*
X179660193Y-66304320D01*
X179510026Y-66712125D01*
X179331411Y-67125054D01*
X179138454Y-67506732D01*
X179021379Y-67706058D01*
X178954916Y-67839587D01*
X178980692Y-67903475D01*
X179112104Y-67908000D01*
X179254730Y-67885079D01*
X179509561Y-67852440D01*
X179774297Y-67840513D01*
X179794469Y-67840806D01*
X179973384Y-67854345D01*
X180056847Y-67897796D01*
X180083145Y-67987885D01*
X180076694Y-68051201D01*
X180037491Y-68130372D01*
X179952595Y-68240379D01*
X179809067Y-68396202D01*
X179593966Y-68612823D01*
X179294353Y-68905223D01*
X179272689Y-68926199D01*
X178995067Y-69199128D01*
X178748787Y-69449184D01*
X178551605Y-69657711D01*
X178421279Y-69806051D01*
X178378593Y-69865552D01*
X178285626Y-69970081D01*
X178122969Y-70000080D01*
X178084713Y-69999303D01*
X177890772Y-70024611D01*
X177654885Y-70098413D01*
X177547729Y-70145501D01*
X177079485Y-70339420D01*
X176670365Y-70432410D01*
X176602816Y-70438091D01*
X176496438Y-70450313D01*
X176396409Y-70483153D01*
X176281547Y-70551257D01*
X176130671Y-70669269D01*
X175922601Y-70851834D01*
X175667366Y-71084878D01*
X175434537Y-71290426D01*
X175222786Y-71461976D01*
X175060175Y-71577603D01*
X174990637Y-71613523D01*
X174879241Y-71680798D01*
X174695926Y-71829684D01*
X174460269Y-72043359D01*
X174228990Y-72267794D01*
X173866672Y-72614858D01*
X173579551Y-72857555D01*
X173363085Y-72999699D01*
X173349521Y-73006437D01*
X173111624Y-73149855D01*
X173003152Y-73296561D01*
X173019700Y-73462075D01*
X173156858Y-73661916D01*
X173161772Y-73667461D01*
X173323347Y-73912058D01*
X173385579Y-74154852D01*
X173343944Y-74366180D01*
X173281474Y-74452071D01*
X173054900Y-74597985D01*
X172760400Y-74678382D01*
X172454439Y-74678605D01*
X172426726Y-74673905D01*
X172280415Y-74637596D01*
X172151593Y-74576193D01*
X172009176Y-74468287D01*
X171822082Y-74292470D01*
X171709421Y-74179828D01*
X171458578Y-73898209D01*
X171224117Y-73584005D01*
X171106038Y-73396237D01*
X171025938Y-73268865D01*
X170883940Y-72984437D01*
G37*
G36*
X170764617Y-69290592D02*
G01*
X170665863Y-69131180D01*
X170604014Y-68915776D01*
X170599769Y-68895477D01*
X170579109Y-68567756D01*
X170632724Y-68223489D01*
X170635843Y-68212572D01*
X171520032Y-68212572D01*
X171554091Y-68421815D01*
X171561677Y-68444614D01*
X171710640Y-68695324D01*
X171926140Y-68851141D01*
X172180013Y-68912530D01*
X172444093Y-68879953D01*
X172690217Y-68753875D01*
X172890220Y-68534759D01*
X172950741Y-68421742D01*
X172997470Y-68244529D01*
X173015251Y-68026215D01*
X173014762Y-68001362D01*
X172987387Y-67809317D01*
X172899197Y-67660041D01*
X172780474Y-67543950D01*
X172613920Y-67418537D01*
X172465135Y-67377677D01*
X172284889Y-67398089D01*
X172002801Y-67512401D01*
X171747123Y-67718445D01*
X171565786Y-67975297D01*
X171541214Y-68032991D01*
X171520032Y-68212572D01*
X170635843Y-68212572D01*
X170638640Y-68202785D01*
X170688457Y-68045453D01*
X170743805Y-67919726D01*
X170824351Y-67800063D01*
X170949763Y-67660917D01*
X171139706Y-67476744D01*
X171344020Y-67286593D01*
X171603743Y-67049231D01*
X171793921Y-66886966D01*
X171941811Y-66781676D01*
X172074675Y-66715238D01*
X172219770Y-66669530D01*
X172302330Y-66649502D01*
X172684548Y-66592138D01*
X172995712Y-66622677D01*
X173271164Y-66746920D01*
X173382689Y-66826847D01*
X173664976Y-67121324D01*
X173822714Y-67454891D01*
X173856691Y-67818132D01*
X173767694Y-68201631D01*
X173556505Y-68595973D01*
X173223911Y-68991741D01*
X173200127Y-69015314D01*
X172976944Y-69217066D01*
X172740612Y-69403970D01*
X172565510Y-69521196D01*
X172165964Y-69687742D01*
X171757858Y-69743010D01*
X171368234Y-69688056D01*
X171024139Y-69523934D01*
X170944055Y-69461909D01*
X170938712Y-69457771D01*
X170764617Y-69290592D01*
G37*
%TO.C,M78AR05-2*%
X123158444Y-85185000D02*
X114538444Y-85185000D01*
X115538444Y-73224000D02*
X114298444Y-73224000D01*
X123158444Y-73464000D02*
X114538444Y-73464000D01*
X114538444Y-73464000D02*
X114538444Y-85185000D01*
X123158444Y-73464000D02*
X123158444Y-85185000D01*
X114298444Y-73224000D02*
X114298444Y-74464000D01*
%TO.C,LED2*%
X197930000Y-70990000D02*
X192430000Y-70990000D01*
X187130000Y-78440000D02*
X187730000Y-78740000D01*
X197930000Y-75990000D02*
X192430000Y-75990000D01*
X197930000Y-73990000D02*
X197930000Y-73490000D01*
X192430000Y-71490000D02*
X197930000Y-71490000D01*
X187730000Y-78740000D02*
X187130000Y-79040000D01*
X186820000Y-68680000D02*
X186820000Y-70100000D01*
X192430000Y-73990000D02*
X197930000Y-73990000D01*
X198540000Y-74990000D02*
X198540000Y-81300000D01*
X192430000Y-78990000D02*
X197930000Y-78990000D01*
X198540000Y-81300000D02*
X186820000Y-81300000D01*
X197930000Y-78490000D02*
X192430000Y-78490000D01*
X197930000Y-76490000D02*
X197930000Y-75990000D01*
X187130000Y-79040000D02*
X187130000Y-78440000D01*
X186820000Y-81300000D02*
X186820000Y-79880000D01*
X198540000Y-74990000D02*
X198540000Y-68680000D01*
X192430000Y-75990000D02*
X192430000Y-76490000D01*
X192430000Y-73490000D02*
X192430000Y-73990000D01*
X197930000Y-78990000D02*
X197930000Y-78490000D01*
X192430000Y-70990000D02*
X192430000Y-71490000D01*
X191320000Y-70100000D02*
X191320000Y-74990000D01*
X186820000Y-79880000D02*
X191320000Y-79880000D01*
X192430000Y-78490000D02*
X192430000Y-78990000D01*
X198540000Y-68680000D02*
X186820000Y-68680000D01*
X192430000Y-76490000D02*
X197930000Y-76490000D01*
X186820000Y-70100000D02*
X191320000Y-70100000D01*
X197930000Y-71490000D02*
X197930000Y-70990000D01*
X191320000Y-79880000D02*
X191320000Y-74990000D01*
X197930000Y-73490000D02*
X192430000Y-73490000D01*
%TO.C,ICS-UART1*%
X86832000Y-93370000D02*
X86832000Y-98870000D01*
X94832000Y-98870000D02*
X94832000Y-93370000D01*
X87332000Y-98870000D02*
X87332000Y-93370000D01*
X82022000Y-99480000D02*
X82022000Y-87760000D01*
X83442000Y-87760000D02*
X83442000Y-92260000D01*
X89582000Y-99480000D02*
X82022000Y-99480000D01*
X83442000Y-92260000D02*
X89582000Y-92260000D01*
X89332000Y-93370000D02*
X89332000Y-98870000D01*
X92332000Y-93370000D02*
X91832000Y-93370000D01*
X84332000Y-93370000D02*
X84332000Y-98870000D01*
X94332000Y-98870000D02*
X94832000Y-98870000D01*
X84832000Y-93370000D02*
X84332000Y-93370000D01*
X84582000Y-88670000D02*
X84282000Y-88070000D01*
X91832000Y-93370000D02*
X91832000Y-98870000D01*
X84282000Y-88070000D02*
X84882000Y-88070000D01*
X94832000Y-93370000D02*
X94332000Y-93370000D01*
X91832000Y-98870000D02*
X92332000Y-98870000D01*
X82022000Y-87760000D02*
X83442000Y-87760000D01*
X97142000Y-99480000D02*
X97142000Y-87760000D01*
X87332000Y-93370000D02*
X86832000Y-93370000D01*
X95722000Y-87760000D02*
X95722000Y-92260000D01*
X92332000Y-98870000D02*
X92332000Y-93370000D01*
X94332000Y-93370000D02*
X94332000Y-98870000D01*
X95722000Y-92260000D02*
X89582000Y-92260000D01*
X89332000Y-98870000D02*
X89832000Y-98870000D01*
X97142000Y-87760000D02*
X95722000Y-87760000D01*
X89582000Y-99480000D02*
X97142000Y-99480000D01*
X89832000Y-98870000D02*
X89832000Y-93370000D01*
X86832000Y-98870000D02*
X87332000Y-98870000D01*
X89832000Y-93370000D02*
X89332000Y-93370000D01*
X84882000Y-88070000D02*
X84582000Y-88670000D01*
X84332000Y-98870000D02*
X84832000Y-98870000D01*
X84832000Y-98870000D02*
X84832000Y-93370000D01*
%TO.C,R2*%
X125750000Y-54900000D02*
X125750000Y-58740000D01*
X126670000Y-53950000D02*
X126670000Y-54900000D01*
X126670000Y-59690000D02*
X126670000Y-58740000D01*
X125750000Y-58740000D02*
X127590000Y-58740000D01*
X127590000Y-54900000D02*
X125750000Y-54900000D01*
X127590000Y-58740000D02*
X127590000Y-54900000D01*
%TO.C,Under-UART1*%
X100834000Y-93370000D02*
X100334000Y-93370000D01*
X105334000Y-93370000D02*
X105334000Y-98870000D01*
X102834000Y-98870000D02*
X103334000Y-98870000D01*
X104334000Y-99480000D02*
X98024000Y-99480000D01*
X103334000Y-98870000D02*
X103334000Y-93370000D01*
X109224000Y-92260000D02*
X104334000Y-92260000D01*
X103334000Y-93370000D02*
X102834000Y-93370000D01*
X100284000Y-88070000D02*
X100884000Y-88070000D01*
X107834000Y-93370000D02*
X107834000Y-98870000D01*
X105834000Y-98870000D02*
X105834000Y-93370000D01*
X107834000Y-98870000D02*
X108334000Y-98870000D01*
X105334000Y-98870000D02*
X105834000Y-98870000D01*
X109224000Y-87760000D02*
X109224000Y-92260000D01*
X99444000Y-92260000D02*
X104334000Y-92260000D01*
X99444000Y-87760000D02*
X99444000Y-92260000D01*
X108334000Y-98870000D02*
X108334000Y-93370000D01*
X102834000Y-93370000D02*
X102834000Y-98870000D01*
X98024000Y-99480000D02*
X98024000Y-87760000D01*
X108334000Y-93370000D02*
X107834000Y-93370000D01*
X100834000Y-98870000D02*
X100834000Y-93370000D01*
X100334000Y-98870000D02*
X100834000Y-98870000D01*
X110644000Y-99480000D02*
X110644000Y-87760000D01*
X110644000Y-87760000D02*
X109224000Y-87760000D01*
X100584000Y-88670000D02*
X100284000Y-88070000D01*
X105834000Y-93370000D02*
X105334000Y-93370000D01*
X104334000Y-99480000D02*
X110644000Y-99480000D01*
X100884000Y-88070000D02*
X100584000Y-88670000D01*
X98024000Y-87760000D02*
X99444000Y-87760000D01*
X100334000Y-93370000D02*
X100334000Y-98870000D01*
%TO.C,ICS-board1*%
X131790000Y-75990000D02*
X134330000Y-75990000D01*
X134330000Y-75990000D02*
X134330000Y-83610000D01*
X134330000Y-83610000D02*
X131790000Y-83610000D01*
X131790000Y-83610000D02*
X131790000Y-75990000D01*
X144490000Y-75380000D02*
X123990000Y-75380000D01*
X123990000Y-75380000D02*
X123990000Y-94380000D01*
X123990000Y-94380000D02*
X144490000Y-94380000D01*
X144490000Y-94380000D02*
X144490000Y-75380000D01*
X144490000Y-75990000D02*
X134330000Y-75990000D01*
X134330000Y-75990000D02*
X134330000Y-78530000D01*
X134330000Y-78530000D02*
X144490000Y-78530000D01*
X144490000Y-78530000D02*
X144490000Y-75990000D01*
X124170000Y-81070000D02*
X129250000Y-81070000D01*
X129250000Y-81070000D02*
X129250000Y-78530000D01*
X129250000Y-78530000D02*
X124170000Y-78530000D01*
X124170000Y-78530000D02*
X124170000Y-81070000D01*
X129250000Y-75990000D02*
X131790000Y-75990000D01*
X131790000Y-75990000D02*
X131790000Y-83610000D01*
X131790000Y-83610000D02*
X129250000Y-83610000D01*
X129250000Y-83610000D02*
X129250000Y-75990000D01*
X144490000Y-91230000D02*
X134330000Y-91230000D01*
X134330000Y-91230000D02*
X134330000Y-93770000D01*
X134330000Y-93770000D02*
X144490000Y-93770000D01*
X144490000Y-93770000D02*
X144490000Y-91230000D01*
%TO.C,Air-UART1*%
X75561000Y-61651000D02*
X75561000Y-61151000D01*
X80861000Y-61101000D02*
X80861000Y-61701000D01*
X75561000Y-66651000D02*
X75561000Y-66151000D01*
X70061000Y-66151000D02*
X70061000Y-66651000D01*
X69451000Y-71461000D02*
X81171000Y-71461000D01*
X75561000Y-69151000D02*
X75561000Y-68651000D01*
X75561000Y-68651000D02*
X70061000Y-68651000D01*
X75561000Y-64151000D02*
X75561000Y-63651000D01*
X70061000Y-61151000D02*
X70061000Y-61651000D01*
X70061000Y-69151000D02*
X75561000Y-69151000D01*
X75561000Y-66151000D02*
X70061000Y-66151000D01*
X69451000Y-65151000D02*
X69451000Y-58841000D01*
X81171000Y-58841000D02*
X81171000Y-60261000D01*
X76671000Y-60261000D02*
X76671000Y-65151000D01*
X81171000Y-60261000D02*
X76671000Y-60261000D01*
X80261000Y-61401000D02*
X80861000Y-61101000D01*
X70061000Y-61651000D02*
X75561000Y-61651000D01*
X75561000Y-61151000D02*
X70061000Y-61151000D01*
X81171000Y-70041000D02*
X76671000Y-70041000D01*
X70061000Y-63651000D02*
X70061000Y-64151000D01*
X69451000Y-65151000D02*
X69451000Y-71461000D01*
X70061000Y-66651000D02*
X75561000Y-66651000D01*
X76671000Y-70041000D02*
X76671000Y-65151000D01*
X69451000Y-58841000D02*
X81171000Y-58841000D01*
X75561000Y-63651000D02*
X70061000Y-63651000D01*
X80861000Y-61701000D02*
X80261000Y-61401000D01*
X70061000Y-68651000D02*
X70061000Y-69151000D01*
X70061000Y-64151000D02*
X75561000Y-64151000D01*
X81171000Y-71461000D02*
X81171000Y-70041000D01*
%TO.C,D2*%
X101685444Y-77675000D02*
X98745444Y-77675000D01*
X101685444Y-77435000D02*
X98745444Y-77435000D01*
X101685444Y-76655000D02*
X98745444Y-76655000D01*
X98745444Y-76655000D02*
X98745444Y-82095000D01*
X100215444Y-75435000D02*
X100215444Y-76655000D01*
X101685444Y-77555000D02*
X98745444Y-77555000D01*
X101685444Y-82095000D02*
X101685444Y-76655000D01*
X98745444Y-82095000D02*
X101685444Y-82095000D01*
X100215444Y-83315000D02*
X100215444Y-82095000D01*
%TO.C,R1*%
X131400000Y-58740000D02*
X131400000Y-54900000D01*
X129560000Y-58740000D02*
X131400000Y-58740000D01*
X130480000Y-53950000D02*
X130480000Y-54900000D01*
X131400000Y-54900000D02*
X129560000Y-54900000D01*
X129560000Y-54900000D02*
X129560000Y-58740000D01*
X130480000Y-59690000D02*
X130480000Y-58740000D01*
%TO.C,Y1*%
X175360000Y-55530000D02*
X175360000Y-58030000D01*
X171960000Y-55530000D02*
X171960000Y-58030000D01*
X171960000Y-58030000D02*
G75*
G03*
X172611039Y-59367790I1700000J0D01*
G01*
X175360000Y-55530000D02*
G75*
G03*
X174708961Y-54192210I-1700000J0D01*
G01*
X172611039Y-54192210D02*
G75*
G03*
X171960000Y-55530000I1048961J-1337790D01*
G01*
X174708961Y-59367790D02*
G75*
G03*
X175360000Y-58030000I-1048961J1337790D01*
G01*
%TO.C,Speaker1*%
X69430000Y-78887000D02*
X81150000Y-78887000D01*
X75540000Y-84197000D02*
X75540000Y-83697000D01*
X70040000Y-86697000D02*
X75540000Y-86697000D01*
X70040000Y-81197000D02*
X70040000Y-81697000D01*
X70040000Y-86197000D02*
X70040000Y-86697000D01*
X81150000Y-80307000D02*
X76650000Y-80307000D01*
X81150000Y-87587000D02*
X76650000Y-87587000D01*
X69430000Y-83947000D02*
X69430000Y-89007000D01*
X69430000Y-89007000D02*
X81150000Y-89007000D01*
X75540000Y-81197000D02*
X70040000Y-81197000D01*
X70040000Y-81697000D02*
X75540000Y-81697000D01*
X80840000Y-81147000D02*
X80840000Y-81747000D01*
X75540000Y-83697000D02*
X70040000Y-83697000D01*
X75540000Y-86197000D02*
X70040000Y-86197000D01*
X69430000Y-83947000D02*
X69430000Y-78887000D01*
X70040000Y-83697000D02*
X70040000Y-84197000D01*
X80240000Y-81447000D02*
X80840000Y-81147000D01*
X81150000Y-89007000D02*
X81150000Y-87587000D01*
X80840000Y-81747000D02*
X80240000Y-81447000D01*
X75540000Y-86697000D02*
X75540000Y-86197000D01*
X75540000Y-81697000D02*
X75540000Y-81197000D01*
X70040000Y-84197000D02*
X75540000Y-84197000D01*
X76650000Y-87587000D02*
X76650000Y-83947000D01*
X76650000Y-80307000D02*
X76650000Y-83947000D01*
X81150000Y-78887000D02*
X81150000Y-80307000D01*
%TO.C,M78AR05-3*%
X97758444Y-73464000D02*
X97758444Y-85185000D01*
X97758444Y-73464000D02*
X89138444Y-73464000D01*
X90138444Y-73224000D02*
X88898444Y-73224000D01*
X89138444Y-73464000D02*
X89138444Y-85185000D01*
X97758444Y-85185000D02*
X89138444Y-85185000D01*
X88898444Y-73224000D02*
X88898444Y-74464000D01*
%TO.C,C1*%
X121254888Y-63520000D02*
X121254888Y-65000000D01*
X121054888Y-63484000D02*
X121054888Y-65000000D01*
X121094888Y-67080000D02*
X121094888Y-68590000D01*
X121695888Y-63658000D02*
X121695888Y-65000000D01*
X122935888Y-67080000D02*
X122935888Y-67359000D01*
X122975888Y-67080000D02*
X122975888Y-67291000D01*
X121334888Y-67080000D02*
X121334888Y-68541000D01*
X120694888Y-63460000D02*
X120694888Y-68620000D01*
X121695888Y-67080000D02*
X121695888Y-68422000D01*
X123015888Y-64862000D02*
X123015888Y-67218000D01*
X122015888Y-67080000D02*
X122015888Y-68264000D01*
X122415888Y-64103000D02*
X122415888Y-65000000D01*
X121975888Y-63793000D02*
X121975888Y-65000000D01*
X121615888Y-63626000D02*
X121615888Y-65000000D01*
X122175888Y-63918000D02*
X122175888Y-65000000D01*
X121855888Y-67080000D02*
X121855888Y-68350000D01*
X122615888Y-64297000D02*
X122615888Y-65000000D01*
X122535888Y-67080000D02*
X122535888Y-67866000D01*
X122055888Y-67080000D02*
X122055888Y-68240000D01*
X122975888Y-64789000D02*
X122975888Y-65000000D01*
X121935888Y-63772000D02*
X121935888Y-65000000D01*
X120814888Y-63462000D02*
X120814888Y-68618000D01*
X121615888Y-67080000D02*
X121615888Y-68454000D01*
X122135888Y-63891000D02*
X122135888Y-65000000D01*
X122255888Y-63975000D02*
X122255888Y-65000000D01*
X122415888Y-67080000D02*
X122415888Y-67977000D01*
X121174888Y-63504000D02*
X121174888Y-65000000D01*
X122895888Y-67080000D02*
X122895888Y-67423000D01*
X122135888Y-67080000D02*
X122135888Y-68189000D01*
X122015888Y-63816000D02*
X122015888Y-65000000D01*
X121775888Y-67080000D02*
X121775888Y-68388000D01*
X120774888Y-63461000D02*
X120774888Y-68619000D01*
X122575888Y-64255000D02*
X122575888Y-65000000D01*
X122455888Y-64139000D02*
X122455888Y-65000000D01*
X121134888Y-63497000D02*
X121134888Y-65000000D01*
X121014888Y-67080000D02*
X121014888Y-68601000D01*
X121655888Y-63642000D02*
X121655888Y-65000000D01*
X121535888Y-63598000D02*
X121535888Y-65000000D01*
X118140113Y-64315000D02*
X118140113Y-64815000D01*
X122215888Y-67080000D02*
X122215888Y-68135000D01*
X122255888Y-67080000D02*
X122255888Y-68105000D01*
X121054888Y-67080000D02*
X121054888Y-68596000D01*
X121975888Y-67080000D02*
X121975888Y-68287000D01*
X122335888Y-67080000D02*
X122335888Y-68044000D01*
X122095888Y-63865000D02*
X122095888Y-65000000D01*
X122655888Y-64341000D02*
X122655888Y-65000000D01*
X122735888Y-67080000D02*
X122735888Y-67645000D01*
X122655888Y-67080000D02*
X122655888Y-67739000D01*
X121855888Y-63730000D02*
X121855888Y-65000000D01*
X121735888Y-63675000D02*
X121735888Y-65000000D01*
X121094888Y-63490000D02*
X121094888Y-65000000D01*
X122295888Y-67080000D02*
X122295888Y-68075000D01*
X120974888Y-67080000D02*
X120974888Y-68605000D01*
X122215888Y-63945000D02*
X122215888Y-65000000D01*
X122575888Y-67080000D02*
X122575888Y-67825000D01*
X122535888Y-64214000D02*
X122535888Y-65000000D01*
X122375888Y-67080000D02*
X122375888Y-68011000D01*
X121495888Y-63585000D02*
X121495888Y-65000000D01*
X121214888Y-67080000D02*
X121214888Y-68568000D01*
X122895888Y-64657000D02*
X122895888Y-65000000D01*
X121415888Y-67080000D02*
X121415888Y-68520000D01*
X117890113Y-64565000D02*
X118390113Y-64565000D01*
X121374888Y-63549000D02*
X121374888Y-65000000D01*
X120934888Y-67080000D02*
X120934888Y-68609000D01*
X122055888Y-63840000D02*
X122055888Y-65000000D01*
X121294888Y-67080000D02*
X121294888Y-68551000D01*
X122855888Y-67080000D02*
X122855888Y-67483000D01*
X122175888Y-67080000D02*
X122175888Y-68162000D01*
X121655888Y-67080000D02*
X121655888Y-68438000D01*
X122935888Y-64721000D02*
X122935888Y-65000000D01*
X122775888Y-67080000D02*
X122775888Y-67594000D01*
X122735888Y-64435000D02*
X122735888Y-65000000D01*
X123255888Y-65522000D02*
X123255888Y-66558000D01*
X121294888Y-63529000D02*
X121294888Y-65000000D01*
X122455888Y-67080000D02*
X122455888Y-67941000D01*
X121895888Y-67080000D02*
X121895888Y-68330000D01*
X122855888Y-64597000D02*
X122855888Y-65000000D01*
X121575888Y-63612000D02*
X121575888Y-65000000D01*
X120894888Y-63467000D02*
X120894888Y-68613000D01*
X122815888Y-64540000D02*
X122815888Y-65000000D01*
X123135888Y-65125000D02*
X123135888Y-66955000D01*
X123095888Y-65029000D02*
X123095888Y-67051000D01*
X122295888Y-64005000D02*
X122295888Y-65000000D01*
X121254888Y-67080000D02*
X121254888Y-68560000D01*
X121575888Y-67080000D02*
X121575888Y-68468000D01*
X121174888Y-67080000D02*
X121174888Y-68576000D01*
X123055888Y-64942000D02*
X123055888Y-67138000D01*
X121775888Y-63692000D02*
X121775888Y-65000000D01*
X122695888Y-64387000D02*
X122695888Y-65000000D01*
X120734888Y-63460000D02*
X120734888Y-68620000D01*
X122815888Y-67080000D02*
X122815888Y-67540000D01*
X121334888Y-63539000D02*
X121334888Y-65000000D01*
X121815888Y-63711000D02*
X121815888Y-65000000D01*
X121214888Y-63512000D02*
X121214888Y-65000000D01*
X121374888Y-67080000D02*
X121374888Y-68531000D01*
X123215888Y-65363000D02*
X123215888Y-66717000D01*
X123175888Y-65235000D02*
X123175888Y-66845000D01*
X122335888Y-64036000D02*
X122335888Y-65000000D01*
X121895888Y-63750000D02*
X121895888Y-65000000D01*
X120934888Y-63471000D02*
X120934888Y-65000000D01*
X121495888Y-67080000D02*
X121495888Y-68495000D01*
X121134888Y-67080000D02*
X121134888Y-68583000D01*
X122375888Y-64069000D02*
X122375888Y-65000000D01*
X121935888Y-67080000D02*
X121935888Y-68308000D01*
X121535888Y-67080000D02*
X121535888Y-68482000D01*
X121455888Y-67080000D02*
X121455888Y-68508000D01*
X121815888Y-67080000D02*
X121815888Y-68369000D01*
X121735888Y-67080000D02*
X121735888Y-68405000D01*
X122615888Y-67080000D02*
X122615888Y-67783000D01*
X123295888Y-65756000D02*
X123295888Y-66324000D01*
X121455888Y-63572000D02*
X121455888Y-65000000D01*
X120854888Y-63464000D02*
X120854888Y-68616000D01*
X122775888Y-64486000D02*
X122775888Y-65000000D01*
X121415888Y-63560000D02*
X121415888Y-65000000D01*
X122495888Y-64176000D02*
X122495888Y-65000000D01*
X120974888Y-63475000D02*
X120974888Y-65000000D01*
X122095888Y-67080000D02*
X122095888Y-68215000D01*
X122495888Y-67080000D02*
X122495888Y-67904000D01*
X121014888Y-63479000D02*
X121014888Y-65000000D01*
X122695888Y-67080000D02*
X122695888Y-67693000D01*
X123314888Y-66040000D02*
G75*
G03*
X123314888Y-66040000I-2620000J0D01*
G01*
%TO.C,DPS310*%
X145880000Y-62320000D02*
X165882073Y-62320000D01*
X165882073Y-62320000D02*
X165882073Y-102270000D01*
X165882073Y-102270000D02*
X145880000Y-102270000D01*
X145880000Y-102270000D02*
X145880000Y-62320000D01*
%TO.C,M78AR05-1*%
X110712444Y-73464000D02*
X110712444Y-85185000D01*
X110712444Y-85185000D02*
X102092444Y-85185000D01*
X103092444Y-73224000D02*
X101852444Y-73224000D01*
X102092444Y-73464000D02*
X102092444Y-85185000D01*
X110712444Y-73464000D02*
X102092444Y-73464000D01*
X101852444Y-73224000D02*
X101852444Y-74464000D01*
%TO.C,D3*%
X85925000Y-77435000D02*
X82985000Y-77435000D01*
X85925000Y-77675000D02*
X82985000Y-77675000D01*
X85925000Y-76655000D02*
X82985000Y-76655000D01*
X85925000Y-77555000D02*
X82985000Y-77555000D01*
X82985000Y-82095000D02*
X85925000Y-82095000D01*
X85925000Y-82095000D02*
X85925000Y-76655000D01*
X84455000Y-83315000D02*
X84455000Y-82095000D01*
X84455000Y-75435000D02*
X84455000Y-76655000D01*
X82985000Y-76655000D02*
X82985000Y-82095000D01*
%TO.C,AE-BNO55*%
X127305000Y-68853250D02*
X128956000Y-68853250D01*
X128956000Y-68853250D02*
X128956000Y-70440750D01*
X128956000Y-70440750D02*
X127305000Y-70440750D01*
X127305000Y-70440750D02*
X127305000Y-68853250D01*
X143290000Y-62750000D02*
X125290000Y-62750000D01*
X125290000Y-62750000D02*
X125290000Y-73750000D01*
X125290000Y-73750000D02*
X143290000Y-73750000D01*
X143290000Y-73750000D02*
X143290000Y-62750000D01*
X136195000Y-65837000D02*
X132385000Y-65837000D01*
X132385000Y-65837000D02*
X132385000Y-70536000D01*
X132385000Y-70536000D02*
X136195000Y-70536000D01*
X136195000Y-70536000D02*
X136195000Y-65837000D01*
X139624000Y-67234000D02*
X142545000Y-67234000D01*
X142545000Y-67234000D02*
X142545000Y-69393000D01*
X142545000Y-69393000D02*
X139624000Y-69393000D01*
X139624000Y-69393000D02*
X139624000Y-67234000D01*
X126162000Y-71806000D02*
X128321000Y-71806000D01*
X128321000Y-71806000D02*
X128321000Y-72949000D01*
X128321000Y-72949000D02*
X126162000Y-72949000D01*
X126162000Y-72949000D02*
X126162000Y-71806000D01*
X140513000Y-64186000D02*
X141783000Y-64186000D01*
X141783000Y-64186000D02*
X141783000Y-64821000D01*
X141783000Y-64821000D02*
X140513000Y-64821000D01*
X140513000Y-64821000D02*
X140513000Y-64186000D01*
X138227000Y-67234000D02*
X137084000Y-67234000D01*
X137084000Y-67234000D02*
X137084000Y-70028000D01*
X137084000Y-70028000D02*
X138227000Y-70028000D01*
X138227000Y-70028000D02*
X138227000Y-67234000D01*
%TO.C,D1*%
X113230000Y-56085000D02*
X110290000Y-56085000D01*
X110290000Y-55065000D02*
X110290000Y-60505000D01*
X113230000Y-55845000D02*
X110290000Y-55845000D01*
X110290000Y-60505000D02*
X113230000Y-60505000D01*
X111760000Y-52575000D02*
X111760000Y-55065000D01*
X113230000Y-60505000D02*
X113230000Y-55065000D01*
X113230000Y-55965000D02*
X110290000Y-55965000D01*
X113230000Y-55065000D02*
X110290000Y-55065000D01*
X111760000Y-62995000D02*
X111760000Y-60505000D01*
%TO.C,LED1*%
X197930000Y-85400000D02*
X197930000Y-84900000D01*
X197930000Y-92400000D02*
X192430000Y-92400000D01*
X197930000Y-89900000D02*
X192430000Y-89900000D01*
X192430000Y-92400000D02*
X192430000Y-92900000D01*
X186820000Y-95210000D02*
X186820000Y-93790000D01*
X187730000Y-92650000D02*
X187130000Y-92950000D01*
X186820000Y-84010000D02*
X191320000Y-84010000D01*
X191320000Y-93790000D02*
X191320000Y-88900000D01*
X186820000Y-93790000D02*
X191320000Y-93790000D01*
X192430000Y-87900000D02*
X197930000Y-87900000D01*
X198540000Y-88900000D02*
X198540000Y-82590000D01*
X197930000Y-87900000D02*
X197930000Y-87400000D01*
X192430000Y-87400000D02*
X192430000Y-87900000D01*
X192430000Y-90400000D02*
X197930000Y-90400000D01*
X191320000Y-84010000D02*
X191320000Y-88900000D01*
X192430000Y-92900000D02*
X197930000Y-92900000D01*
X197930000Y-92900000D02*
X197930000Y-92400000D01*
X192430000Y-84900000D02*
X192430000Y-85400000D01*
X198540000Y-95210000D02*
X186820000Y-95210000D01*
X192430000Y-85400000D02*
X197930000Y-85400000D01*
X192430000Y-89900000D02*
X192430000Y-90400000D01*
X198540000Y-82590000D02*
X186820000Y-82590000D01*
X187130000Y-92950000D02*
X187130000Y-92350000D01*
X197930000Y-90400000D02*
X197930000Y-89900000D01*
X187130000Y-92350000D02*
X187730000Y-92650000D01*
X186820000Y-82590000D02*
X186820000Y-84010000D01*
X197930000Y-84900000D02*
X192430000Y-84900000D01*
X197930000Y-87400000D02*
X192430000Y-87400000D01*
X198540000Y-88900000D02*
X198540000Y-95210000D01*
%TD*%
M02*
