%TF.GenerationSoftware,KiCad,Pcbnew,(6.0.9)*%
%TF.CreationDate,2023-06-09T23:35:08+09:00*%
%TF.ProjectId,PCB_Main,5043425f-4d61-4696-9e2e-6b696361645f,rev?*%
%TF.SameCoordinates,Original*%
%TF.FileFunction,Soldermask,Top*%
%TF.FilePolarity,Negative*%
%FSLAX46Y46*%
G04 Gerber Fmt 4.6, Leading zero omitted, Abs format (unit mm)*
G04 Created by KiCad (PCBNEW (6.0.9)) date 2023-06-09 23:35:08*
%MOMM*%
%LPD*%
G01*
G04 APERTURE LIST*
G04 Aperture macros list*
%AMRoundRect*
0 Rectangle with rounded corners*
0 $1 Rounding radius*
0 $2 $3 $4 $5 $6 $7 $8 $9 X,Y pos of 4 corners*
0 Add a 4 corners polygon primitive as box body*
4,1,4,$2,$3,$4,$5,$6,$7,$8,$9,$2,$3,0*
0 Add four circle primitives for the rounded corners*
1,1,$1+$1,$2,$3*
1,1,$1+$1,$4,$5*
1,1,$1+$1,$6,$7*
1,1,$1+$1,$8,$9*
0 Add four rect primitives between the rounded corners*
20,1,$1+$1,$2,$3,$4,$5,0*
20,1,$1+$1,$4,$5,$6,$7,0*
20,1,$1+$1,$6,$7,$8,$9,0*
20,1,$1+$1,$8,$9,$2,$3,0*%
G04 Aperture macros list end*
%ADD10R,1.600000X1.600000*%
%ADD11C,1.600000*%
%ADD12RoundRect,0.250000X0.725000X-0.600000X0.725000X0.600000X-0.725000X0.600000X-0.725000X-0.600000X0*%
%ADD13O,1.950000X1.700000*%
%ADD14R,1.800000X1.800000*%
%ADD15O,1.800000X1.800000*%
%ADD16C,3.200000*%
%ADD17O,1.600000X1.600000*%
%ADD18R,2.300000X1.500000*%
%ADD19O,2.300000X1.500000*%
%ADD20RoundRect,0.250000X-0.600000X-0.725000X0.600000X-0.725000X0.600000X0.725000X-0.600000X0.725000X0*%
%ADD21O,1.700000X1.950000*%
%ADD22C,1.400000*%
%ADD23O,1.400000X1.400000*%
%ADD24C,2.000000*%
%ADD25RoundRect,0.250000X-0.725000X0.600000X-0.725000X-0.600000X0.725000X-0.600000X0.725000X0.600000X0*%
%ADD26C,1.700000*%
%ADD27R,1.700000X1.700000*%
%ADD28O,1.700000X1.700000*%
%ADD29C,1.800000*%
G04 APERTURE END LIST*
D10*
%TO.C,U1*%
X92710000Y-51373000D03*
D11*
X92710000Y-53913000D03*
X92710000Y-56453000D03*
X92710000Y-58993000D03*
X92710000Y-61533000D03*
X92710000Y-64073000D03*
X92710000Y-66613000D03*
X107950000Y-66613000D03*
X107950000Y-64073000D03*
X107950000Y-61533000D03*
X107950000Y-58993000D03*
X107950000Y-56453000D03*
X107950000Y-53913000D03*
X107950000Y-51373000D03*
%TD*%
D12*
%TO.C,GPS-UART1*%
X189260000Y-64690000D03*
D13*
X189260000Y-62190000D03*
X189260000Y-59690000D03*
X189260000Y-57190000D03*
X189260000Y-54690000D03*
%TD*%
D14*
%TO.C,D4*%
X112661444Y-74295000D03*
D15*
X112661444Y-84455000D03*
%TD*%
D16*
%TO.C,MH6*%
X196520000Y-97460000D03*
%TD*%
D10*
%TO.C,ATP3012*%
X135570000Y-60620000D03*
D17*
X138110000Y-60620000D03*
X140650000Y-60620000D03*
X143190000Y-60620000D03*
X145730000Y-60620000D03*
X148270000Y-60620000D03*
X150810000Y-60620000D03*
X153350000Y-60620000D03*
X155890000Y-60620000D03*
X158430000Y-60620000D03*
X160970000Y-60620000D03*
X163510000Y-60620000D03*
X166050000Y-60620000D03*
X168590000Y-60620000D03*
X168590000Y-53000000D03*
X166050000Y-53000000D03*
X163510000Y-53000000D03*
X160970000Y-53000000D03*
X158430000Y-53000000D03*
X155890000Y-53000000D03*
X153350000Y-53000000D03*
X150810000Y-53000000D03*
X148270000Y-53000000D03*
X145730000Y-53000000D03*
X143190000Y-53000000D03*
X140650000Y-53000000D03*
X138110000Y-53000000D03*
X135570000Y-53000000D03*
%TD*%
D18*
%TO.C,M78AR05-2*%
X116598444Y-76835000D03*
D19*
X116598444Y-79375000D03*
X116598444Y-81915000D03*
%TD*%
D12*
%TO.C,LED2*%
X189230000Y-78740000D03*
D13*
X189230000Y-76240000D03*
X189230000Y-73740000D03*
X189230000Y-71240000D03*
%TD*%
D20*
%TO.C,ICS-UART1*%
X84582000Y-90170000D03*
D21*
X87082000Y-90170000D03*
X89582000Y-90170000D03*
X92082000Y-90170000D03*
X94582000Y-90170000D03*
%TD*%
D22*
%TO.C,R2*%
X126670000Y-60630000D03*
D23*
X126670000Y-53010000D03*
%TD*%
D20*
%TO.C,Under-UART1*%
X100584000Y-90170000D03*
D21*
X103084000Y-90170000D03*
X105584000Y-90170000D03*
X108084000Y-90170000D03*
%TD*%
D16*
%TO.C,MH1*%
X115240000Y-49200000D03*
%TD*%
D24*
%TO.C,ICS-board1*%
X143220000Y-77260000D03*
X140680000Y-77260000D03*
X138140000Y-77260000D03*
X135600000Y-77260000D03*
X135600000Y-92500000D03*
X138140000Y-92500000D03*
D11*
X140680000Y-92500000D03*
X143220000Y-92500000D03*
D24*
X133060000Y-77260000D03*
X133060000Y-79800000D03*
X133060000Y-82340000D03*
X130520000Y-77260000D03*
X130520000Y-79800000D03*
X130520000Y-82340000D03*
X127980000Y-79800000D03*
X125440000Y-79800000D03*
%TD*%
D25*
%TO.C,Air-UART1*%
X78761000Y-61401000D03*
D13*
X78761000Y-63901000D03*
X78761000Y-66401000D03*
X78761000Y-68901000D03*
%TD*%
D14*
%TO.C,D2*%
X100215444Y-74295000D03*
D15*
X100215444Y-84455000D03*
%TD*%
D22*
%TO.C,R1*%
X130480000Y-53010000D03*
D23*
X130480000Y-60630000D03*
%TD*%
D26*
%TO.C,Y1*%
X173660000Y-54280000D03*
X173660000Y-56780000D03*
X173660000Y-59280000D03*
%TD*%
D25*
%TO.C,Speaker1*%
X78740000Y-81447000D03*
D13*
X78740000Y-83947000D03*
X78740000Y-86447000D03*
%TD*%
D18*
%TO.C,M78AR05-3*%
X91198444Y-76835000D03*
D19*
X91198444Y-79375000D03*
X91198444Y-81915000D03*
%TD*%
D10*
%TO.C,C1*%
X119444888Y-66040000D03*
D11*
X121944888Y-66040000D03*
%TD*%
%TO.C,DPS310*%
X149530000Y-65710000D03*
X152070000Y-65710000D03*
X154610000Y-65710000D03*
X157150000Y-65710000D03*
X159690000Y-65710000D03*
X162230000Y-65710000D03*
%TD*%
D18*
%TO.C,M78AR05-1*%
X104152444Y-76835000D03*
D19*
X104152444Y-79375000D03*
X104152444Y-81915000D03*
%TD*%
D14*
%TO.C,D3*%
X84455000Y-74295000D03*
D15*
X84455000Y-84455000D03*
%TD*%
D16*
%TO.C,MH2*%
X113970000Y-97460000D03*
%TD*%
D24*
%TO.C,AE-BNO55*%
X138100000Y-64440000D03*
X135560000Y-64440000D03*
X133020000Y-64440000D03*
X130480000Y-64440000D03*
X130480000Y-72060000D03*
X133020000Y-72060000D03*
X135560000Y-72060000D03*
X138100000Y-72060000D03*
%TD*%
D16*
%TO.C,MH3*%
X166040000Y-64440000D03*
%TD*%
%TO.C,MH4*%
X166040000Y-92380000D03*
%TD*%
D14*
%TO.C,D1*%
X111760000Y-51435000D03*
D15*
X111760000Y-64135000D03*
%TD*%
D16*
%TO.C,MH5*%
X190170000Y-49200000D03*
%TD*%
D12*
%TO.C,LED1*%
X189230000Y-92650000D03*
D13*
X189230000Y-90150000D03*
X189230000Y-87650000D03*
X189230000Y-85150000D03*
%TD*%
D27*
%TO.C,J1*%
X127940000Y-97460000D03*
D28*
X130480000Y-97460000D03*
X133020000Y-97460000D03*
X135560000Y-97460000D03*
X138100000Y-97460000D03*
X140640000Y-97460000D03*
X143180000Y-97460000D03*
X145720000Y-97460000D03*
%TD*%
D27*
%TO.C,J3*%
X150800000Y-97460000D03*
D28*
X153340000Y-97460000D03*
X155880000Y-97460000D03*
X158420000Y-97460000D03*
X160960000Y-97460000D03*
X163500000Y-97460000D03*
X166040000Y-97460000D03*
X168580000Y-97460000D03*
%TD*%
D27*
%TO.C,J5*%
X173660000Y-97460000D03*
D28*
X176200000Y-97460000D03*
X178740000Y-97460000D03*
X181280000Y-97460000D03*
X183820000Y-97460000D03*
X186360000Y-97460000D03*
X188900000Y-97460000D03*
X191440000Y-97460000D03*
%TD*%
D27*
%TO.C,J2*%
X118796000Y-49200000D03*
D28*
X121336000Y-49200000D03*
X123876000Y-49200000D03*
X126416000Y-49200000D03*
X128956000Y-49200000D03*
X131496000Y-49200000D03*
X134036000Y-49200000D03*
X136576000Y-49200000D03*
X139116000Y-49200000D03*
X141656000Y-49200000D03*
%TD*%
D27*
%TO.C,J4*%
X145720000Y-49200000D03*
D28*
X148260000Y-49200000D03*
X150800000Y-49200000D03*
X153340000Y-49200000D03*
X155880000Y-49200000D03*
X158420000Y-49200000D03*
X160960000Y-49200000D03*
X163500000Y-49200000D03*
%TD*%
D27*
%TO.C,J6*%
X168580000Y-49200000D03*
D28*
X171120000Y-49200000D03*
X173660000Y-49200000D03*
X176200000Y-49200000D03*
X178740000Y-49200000D03*
X181280000Y-49200000D03*
X183820000Y-49200000D03*
X186360000Y-49200000D03*
%TD*%
D27*
%TO.C,ICS-SW1*%
X73294000Y-49530000D03*
D28*
X75834000Y-49530000D03*
X78374000Y-49530000D03*
%TD*%
D22*
%TO.C,AE-MICRO-SD-DIP1*%
X86995000Y-53975000D03*
X86995000Y-56515000D03*
X86995000Y-59055000D03*
X86995000Y-61595000D03*
X86995000Y-64135000D03*
X86995000Y-66675000D03*
X86995000Y-69215000D03*
X86995000Y-71755000D03*
X86995000Y-74295000D03*
X86995000Y-76835000D03*
X74295000Y-74295000D03*
X74295000Y-56515000D03*
%TD*%
D14*
%TO.C,Serial-SW1*%
X73025000Y-97790000D03*
D29*
X75525000Y-97790000D03*
X78025000Y-97790000D03*
X73025000Y-91790000D03*
X75525000Y-91790000D03*
X78025000Y-91790000D03*
%TD*%
M02*
