M48
; DRILL file {KiCad (6.0.9)} date Fri Jun  9 23:35:06 2023
; FORMAT={-:-/ absolute / metric / decimal}
; #@! TF.CreationDate,2023-06-09T23:35:06+09:00
; #@! TF.GenerationSoftware,Kicad,Pcbnew,(6.0.9)
; #@! TF.FileFunction,Plated,1,2,PTH
FMAT,2
METRIC
; #@! TA.AperFunction,Plated,PTH,ViaDrill
T1C0.400
; #@! TA.AperFunction,Plated,PTH,ComponentDrill
T2C0.700
; #@! TA.AperFunction,Plated,PTH,ComponentDrill
T3C0.800
; #@! TA.AperFunction,Plated,PTH,ComponentDrill
T4C0.900
; #@! TA.AperFunction,Plated,PTH,ComponentDrill
T5C0.950
; #@! TA.AperFunction,Plated,PTH,ComponentDrill
T6C1.000
%
G90
G05
T1
X113.919Y-55.372
X125.984Y-74.041
X145.484Y-74.11
X183.832Y-80.962
T2
X126.67Y-53.01
X126.67Y-60.63
X130.48Y-53.01
X130.48Y-60.63
T3
X74.295Y-56.515
X74.295Y-74.295
X86.995Y-53.975
X86.995Y-56.515
X86.995Y-59.055
X86.995Y-61.595
X86.995Y-64.135
X86.995Y-66.675
X86.995Y-69.215
X86.995Y-71.755
X86.995Y-74.295
X86.995Y-76.835
X119.445Y-66.04
X121.945Y-66.04
X135.57Y-53.0
X135.57Y-60.62
X138.11Y-53.0
X138.11Y-60.62
X140.65Y-53.0
X140.65Y-60.62
X143.19Y-53.0
X143.19Y-60.62
X145.73Y-53.0
X145.73Y-60.62
X148.27Y-53.0
X148.27Y-60.62
X150.81Y-53.0
X150.81Y-60.62
X153.35Y-53.0
X153.35Y-60.62
X155.89Y-53.0
X155.89Y-60.62
X158.43Y-53.0
X158.43Y-60.62
X160.97Y-53.0
X160.97Y-60.62
X163.51Y-53.0
X163.51Y-60.62
X166.05Y-53.0
X166.05Y-60.62
X168.59Y-53.0
X168.59Y-60.62
T4
X73.025Y-91.79
X73.025Y-97.79
X75.525Y-91.79
X75.525Y-97.79
X78.025Y-91.79
X78.025Y-97.79
X84.455Y-74.295
X84.455Y-84.455
X100.215Y-74.295
X100.215Y-84.455
X111.76Y-51.435
X111.76Y-64.135
X112.661Y-74.295
X112.661Y-84.455
T5
X78.74Y-81.447
X78.74Y-83.947
X78.74Y-86.447
X78.761Y-61.401
X78.761Y-63.901
X78.761Y-66.401
X78.761Y-68.901
X84.582Y-90.17
X87.082Y-90.17
X89.582Y-90.17
X92.082Y-90.17
X94.582Y-90.17
X100.584Y-90.17
X103.084Y-90.17
X105.584Y-90.17
X108.084Y-90.17
X189.23Y-71.24
X189.23Y-73.74
X189.23Y-76.24
X189.23Y-78.74
X189.23Y-85.15
X189.23Y-87.65
X189.23Y-90.15
X189.23Y-92.65
X189.26Y-54.69
X189.26Y-57.19
X189.26Y-59.69
X189.26Y-62.19
X189.26Y-64.69
T6
X73.294Y-49.53
X75.834Y-49.53
X78.374Y-49.53
X91.198Y-76.835
X91.198Y-79.375
X91.198Y-81.915
X92.71Y-51.373
X92.71Y-53.913
X92.71Y-56.453
X92.71Y-58.993
X92.71Y-61.533
X92.71Y-64.073
X92.71Y-66.613
X104.152Y-76.835
X104.152Y-79.375
X104.152Y-81.915
X107.95Y-51.373
X107.95Y-53.913
X107.95Y-56.453
X107.95Y-58.993
X107.95Y-61.533
X107.95Y-64.073
X107.95Y-66.613
X116.598Y-76.835
X116.598Y-79.375
X116.598Y-81.915
X118.796Y-49.2
X121.336Y-49.2
X123.876Y-49.2
X125.44Y-79.8
X126.416Y-49.2
X127.94Y-97.46
X127.98Y-79.8
X128.956Y-49.2
X130.48Y-64.44
X130.48Y-72.06
X130.48Y-97.46
X130.52Y-77.26
X130.52Y-79.8
X130.52Y-82.34
X131.496Y-49.2
X133.02Y-64.44
X133.02Y-72.06
X133.02Y-97.46
X133.06Y-77.26
X133.06Y-79.8
X133.06Y-82.34
X134.036Y-49.2
X135.56Y-64.44
X135.56Y-72.06
X135.56Y-97.46
X135.6Y-77.26
X135.6Y-92.5
X136.576Y-49.2
X138.1Y-64.44
X138.1Y-72.06
X138.1Y-97.46
X138.14Y-77.26
X138.14Y-92.5
X139.116Y-49.2
X140.64Y-97.46
X140.68Y-77.26
X140.68Y-92.5
X141.656Y-49.2
X143.18Y-97.46
X143.22Y-77.26
X143.22Y-92.5
X145.72Y-49.2
X145.72Y-97.46
X148.26Y-49.2
X149.53Y-65.71
X150.8Y-49.2
X150.8Y-97.46
X152.07Y-65.71
X153.34Y-49.2
X153.34Y-97.46
X154.61Y-65.71
X155.88Y-49.2
X155.88Y-97.46
X157.15Y-65.71
X158.42Y-49.2
X158.42Y-97.46
X159.69Y-65.71
X160.96Y-49.2
X160.96Y-97.46
X162.23Y-65.71
X163.5Y-49.2
X163.5Y-97.46
X166.04Y-97.46
X168.58Y-49.2
X168.58Y-97.46
X171.12Y-49.2
X173.66Y-49.2
X173.66Y-54.28
X173.66Y-56.78
X173.66Y-59.28
X173.66Y-97.46
X176.2Y-49.2
X176.2Y-97.46
X178.74Y-49.2
X178.74Y-97.46
X181.28Y-49.2
X181.28Y-97.46
X183.82Y-49.2
X183.82Y-97.46
X186.36Y-49.2
X186.36Y-97.46
X188.9Y-97.46
X191.44Y-97.46
T0
M30
